/* XPM */
static char *e3c27e8c28154e7fb20b9aea4b7cdbfe2EqYfKjqJjOKuJev[] = {
/* columns rows colors chars-per-pixel */
"50 50 111 2 ",
"   c gray6",
".  c #100F10",
"X  c #141113",
"o  c #191416",
"O  c #171218",
"+  c #191319",
"@  c #21161F",
"#  c #23181E",
"$  c #082E08",
"%  c #221720",
"&  c #261925",
"*  c #2A1B26",
"=  c #2C1C2B",
"-  c #301E2D",
";  c #2E1C31",
":  c #321E32",
">  c #2D2124",
",  c #33232D",
"<  c #3E232E",
"1  c #37282B",
"2  c #3B2A2D",
"3  c #362435",
"4  c #3B2435",
"5  c #3E2935",
"6  c #372639",
"7  c #3D253B",
"8  c #39283C",
"9  c #430007",
"0  c #430008",
"q  c #410F1F",
"w  c #6B0B1B",
"e  c #421323",
"r  c #4A272B",
"t  c #412A2D",
"y  c #412535",
"u  c #412A36",
"i  c #4B2930",
"p  c #40243B",
"a  c #432B3B",
"s  c #443135",
"d  c #47313D",
"f  c #4A333D",
"g  c #46383E",
"h  c #4F393D",
"j  c #51373D",
"k  c #523B3D",
"l  c #563C3D",
"z  c #553D3E",
"x  c #602A32",
"c  c #7C3434",
"v  c #3D2440",
"b  c #3D2540",
"n  c #3D2441",
"m  c #3E2640",
"M  c #3D2443",
"N  c #3E2442",
"B  c #3F2543",
"V  c #422841",
"C  c #452C41",
"Z  c #472F40",
"A  c #452D43",
"S  c #473040",
"D  c #4A3240",
"F  c #4B3343",
"G  c #4D3741",
"H  c #4C3442",
"J  c #493046",
"K  c #4D3344",
"L  c #4E3345",
"P  c #4F3745",
"I  c #483A41",
"U  c #4F3840",
"Y  c #4D3A43",
"T  c #4B3D40",
"R  c #4E3844",
"E  c #4D3F45",
"W  c #4E3F47",
"Q  c #4C3549",
"!  c #4D3B4A",
"~  c #4E3F48",
"^  c #513543",
"/  c #523B43",
"(  c #543940",
")  c #523C40",
"_  c #563C40",
"`  c #503846",
"'  c #523B46",
"]  c #553A44",
"[  c #533D44",
"{  c #533C46",
"}  c #533B49",
"|  c #533C48",
" . c #533C49",
".. c #553D4B",
"X. c #50384C",
"o. c #4F4147",
"O. c #534041",
"+. c #554140",
"@. c #554144",
"#. c #56414A",
"$. c #416340",
"%. c #416741",
"&. c #8B1F37",
"*. c #A7571B",
"=. c #AB3F57",
"-. c #A34643",
";. c #BF5B77",
":. c #5D835D",
">. c #D3839B",
",. c #E7ABBF",
"<. c white",
/* pixels */
"~ W W W I , 8 8 7 8 8 n 8 8 8 8 8 8 8 8 8 8 8 8 8 6 7 N 7 7 3 6 6 7 8 8 8 8 8 8 8 8 5 6 7 7 7 ~ g T ",
"k _ _ k j < y 4 p 7 7 7 7 7 7 p 7 p p 7 p 7 7 7 p p N 3 7 p 4 y y p 7 7 7 7 7 p p 7 y y p p u ] k k ",
"( ( ( j f y y p p p 7 7 7 p p p p p p p p p p p 7 V p p p p 4 p 4 7 7 7 p p p p p p y y p p p ` k l ",
"' { U d y 7 : 7 7 7 7 7 7 7 7 7 7 7 7 7 7 7 7 7 7 7 n V K X.` ` P 7 7 7 7 7 7 7 7 7 7 7 N V 7 7 f k ",
"Q Q A V p 7 7 7 6 6 : 7 n 7 7 7 7 7 7 7 7 5 7 7 7 7 4 G ^ / k k ) d 4 7 B 7 4 4 7 7 8 7 7 7 4 a V K ",
"7 7 7 3 7 7 7 7 7 7 n n 7 7 7 7 7 7 7 7 7 7 7 7 7 7 a ../ k k k ) U a 7 V 7 5 5 7 B 7 7 7 7 7 7 7 7 ",
"7 7 n n n 7 7 7 7 7 7 7 7 7 7 7 7 7 7 7 7 7 7 7 7 4 S ..U ) k / ) O.u 7 n 7 7 7 7 N 7 7 7 7 7 7 7 7 ",
"7 7 7 7 7 n 7 7 7 5 8 a a 5 7 4 7 7 7 7 7 7 7 7 7 7 C ..U ) k k ) ) u 7 B 7 5 7 N N 7 7 7 7 4 7 7 7 ",
"n N N 7 7 7 7 7 a a { { ' G a 4 7 7 7 7 7 7 7 7 7 7 a ..{ ' k k _ @.s 4 7 7 7 7 n M 7 7 7 7 7 7 7 7 ",
"7 N N N 7 7 7 a a G { ) k / F 7 4 7 7 7 7 7 7 7 7 4 C ..{ l h k k @.a 4 7 7 7 7 B n 7 7 7 7 7 7 7 7 ",
"7 7 7 7 7 4 4 d { ) ) k k k } K 4 7 7 7 7 7 7 7 7 4 a 5 1 1 1 1 1 s a 7 7 3 7 7 7 n 7 7 7 7 7 7 7 7 ",
"7 7 7 7 5 4 d ' / k l l l j ' K 7 7 7 7 7 7 7 7 7 p 4 #         X , 4 7 n 6 7 4 5 7 7 7 7 7 7 7 7 7 ",
"7 7 8 7 7 4 Y W ' / k k l h } K : 7 7 7 n ; = = = = & $.%.%.%.$   , 6 7 n 7 5 7 n 7 7 n 7 7 7 7 7 7 ",
"4 7 7 n 7 4 U h ' / k k l h Y K p p 7 7 : @     X X $ :.:.:.:.%.X : 7 7 7 7 n n n n n 7 7 7 7 7 7 7 ",
"5 7 7 7 7 7 Y W / / k k k h u V 7 - - - e w w w c $.%.%.%.%.%.$ X @ ; 7 7 B 7 7 7 7 5 6 7 4 7 7 7 7 ",
"7 7 7 7 7 7 A f / / k / h d 5 3 : + . . w =.-.&.c :.:.%.$         X X ; 7 7 7 7 7 7 a a P 4 7 7 7 7 ",
"7 7 7 7 3 7 7 a / / / / a y 7 : e w w w =.>.;.c c :.:.%.      0 w 0   - 7 7 7 5 7 7 k / #.u 5 7 7 7 ",
"7 7 7 7 7 7 7 5 y u u y u 7 - + c -.=.=.>.,.>.c   $.%.$ $     c c w X - 7 7 7 7 A ! k h #.4 5 n n 7 ",
"7 7 7 7 7 7 7 7 4 y 4 p 5 : e w c ;.>.,.,.,.>.c 0 $.%.$     9 w c w w : : 4 5 4 a ! { U ' u 4 7 7 7 ",
"7 7 7 7 7 7 7 7 7 7 7 7 = + w -.=.>.,.<.<.,.;.-.w 9 0 9 9 9 9 9 0 c c w + = 7 4 d #...Y 4 7 5 7 7 7 ",
"7 a 7 7 7 7 7 N 7 n n V =   c =.;.>.,.<.<.,.;.=.&.w 9 9 9 9 9 w &.c c w   = a 4 4 u u u 6 a 7 7 7 n ",
"7 4 7 7 7 7 7 7 7 5 8 7 =   c ;.>.,.,.,.,.>.>.;.-.&.9 # 9 9 w &.=.-.c w   = 7 7 7 7 7 7 7 7 7 7 7 7 ",
"7 7 7 7 7 7 7 5 7 7 7 7 = . c ;.>.,.,.,.>.>.>.;.;.-.&.c &.&.&.-.-.-.c w   = 7 7 7 7 7 7 7 7 7 7 7 7 ",
"7 7 7 7 5 7 7 7 7 7 7 7 = . c ;.>.,.,.>.;.;.;.;.;.;.;.;.;.=.-.-.c c c w   = 7 7 7 7 7 7 7 7 7 7 5 7 ",
"7 7 7 7 p 7 7 7 p 7 7 p -   c ;.>.,.>.;.;.;.;.;.;.;.;.;.;.=.=.c c c c w   = 7 7 7 7 4 7 7 7 7 7 7 7 ",
"7 7 7 7 7 7 4 7 p p 7 : =   c =.;.>.>.;.;.;.;.=.=.;.=.=.c c c c c c c w   = 7 7 7 7 7 7 7 7 7 7 7 7 ",
"7 7 7 7 7 7 7 4 : a F a , . c =.;.>.>.;.;.;.;.=.=.=.=.c c c c c c c c w   = 7 7 7 7 7 7 7 7 7 7 7 7 ",
"7 7 7 4 7 7 7 7 4 A ' } u . c =.;.>.>.;.;.;.;.=.=.=.=.=.-.c c c c c w 0   = 7 7 7 7 7 7 7 7 7 7 7 7 ",
"7 7 p p 7 p 7 A G ' ' ^ <   c =.;.>.>.;.;.;.;.=.=.=.=.=.=.-.c c c w w 0   = 7 7 7 7 7 7 7 7 7 7 7 7 ",
"r y p p 7 : V y k / / k r w w c ;.;.;.=.=.=.=.=.=.=.=.=.=.-.-.c w w w 0 . = 7 7 5 5 B 7 5 4 a 4 a 5 ",
"^ f p p p p V p ) k k k x w w c =.;.=.c c =.=.=.=.=.=.=.=.-.-.-.c c w 0 . > 7 8 5 7 7 7 5 7 4 , d ..",
"( a : V : p C : ) k k k r 9 w c -.=.=.c c c c c -.=.=.=.-.*.*.;.;.=.w 0   = 7 7 7 7 7 7 7 7 p 3 d ..",
"U a 5 7 7 3 7 4 ' / ) k 5 o w c -.-.-.c c c c c c -.;.-.-.*.-.>.>.;.w 9 X = 7 7 7 7 7 7 7 7 4 4 d K ",
"5 4 7 p 7 7 V A { { / k h s > w &.&.&.c c c c *.*.-.-.=.;.;.>.;.=.c 9 @ * 4 4 4 p 7 7 7 7 7 7 7 7 5 ",
"7 7 7 7 7 7 7 7 a G ^ _ ( / 5 o w &.&.c c c c *.*.*.-.;.;.>.>.=.9 0 + 1 F G f d V 4 7 7 7 7 7 7 7 7 ",
"7 7 7 7 7 7 7 7 7 V P G h I G 1 = w c c c c c -.*.*.-.-.=.;.;.c 9 % 4 G ) _ ( ' G 7 7 7 7 4 7 7 7 7 ",
"7 7 7 7 8 5 7 6 7 V p 4 4 4 a a =   w &.c c c c c c c c c w w 9 + 5 ..l k k k ( ( K p 6 7 7 7 7 7 7 ",
"M 7 7 7 7 7 n n n p 4 4 4 4 7 7 7 = q w w w w w w w w w 0 0 0 @ , G ] { k k k ( ] X.a 7 a 7 7 7 7 7 ",
"N 7 7 7 7 7 n n 7 7 7 7 7 7 7 7 7 4 3 O         . .         O * a ( ] ( / ] ] { ] } 7 4 7 6 N 7 7 5 ",
"N 7 7 7 7 7 7 n 7 7 7 7 7 7 7 7 7 7 6 = = * * * & = = & = & = 3 a G / { j ' / ] / / a 7 7 7 7 7 7 7 ",
"n 7 7 7 7 7 7 7 7 7 7 7 7 7 7 7 7 7 N N 7 4 5 4 N 7 7 7 7 7 6 5 5 f G { { U ( ' d d y 4 4 7 7 7 7 7 ",
"n n 7 7 7 5 7 7 7 7 7 7 7 7 7 7 7 V N 7 5 4 5 7 7 N 7 7 7 7 4 7 4 u a ' ) { ..' d u 1 4 4 n 7 n 7 7 ",
"7 7 7 7 7 7 7 7 7 7 7 7 7 7 7 7 7 : V : C G W V N 7 7 N 7 7 7 7 7 4 4 u a a a a u 4 4 7 7 7 7 7 7 4 ",
"u 5 7 7 7 7 7 7 7 7 7 7 7 7 7 7 V : N 6 P h k a 6 v 7 7 7 7 n 7 7 4 3 7 7 5 : 7 4 4 4 5 7 7 7 7 a d ",
"@.u 4 7 n 7 n 7 7 7 7 7 7 7 7 4 7 7 n 7 G _ ..a 7 7 v 7 7 7 7 7 7 n n n B n n n 7 n 7 7 V 7 7 4 a ] ",
"o.) G a 7 n n n 7 7 7 7 7 7 7 7 7 7 N 7 u 2 t 4 v 7 v 7 n 7 n n n 6 n 6 : n n 6 n 7 B 7 7 N 7 F ' / ",
"' { G d a 4 7 7 7 7 7 7 7 7 7 7 7 7 7 7 7 7 7 7 7 7 7 7 7 7 7 7 7 7 7 7 7 7 7 7 7 7 7 p p 4 a Y Y X.",
"/ j k / i y p 4 p p p p p p p p p p p p p p p p p 7 7 7 p p p p p p V : p p p 7 7 7 p p p y a ] ] } ",
"l ( k j j < y 5 7 7 7 p 7 p 7 7 p p 7 7 p 7 p p 7 7 7 7 a 7 7 p p p 7 7 7 7 7 7 7 p p p p p a  .} ] ",
"W #.o.W g , 8 7 8 8 8 8 8 8 8 8 8 8 8 8 8 8 n 8 8 8 8 8 8 8 8 8 7 7 8 8 8 n 8 8 8 8 8 8 8 8 5 o.! ! "
};
