/* XPM */
static char *_332119779c948fdc71045348686e7f0Vb1eUOLHxjgp4UVt[] = {
/* columns rows colors chars-per-pixel */
"50 50 117 2 ",
"   c black",
".  c #24141F",
"X  c #2B1C22",
"o  c #2A1829",
"O  c #361F36",
"+  c #33222E",
"@  c #3E232E",
"#  c #362637",
"$  c #3B2435",
"%  c #3F2836",
"&  c #372639",
"*  c #3D253B",
"=  c #39283C",
"-  c #41282B",
";  c #422535",
":  c #492334",
">  c #422B36",
",  c #42253B",
"<  c #4B253A",
"1  c #432B3B",
"2  c #4B283C",
"3  c #542536",
"4  c #5C2534",
"5  c #5C2934",
"6  c #52253A",
"7  c #52293B",
"8  c #5C2B3C",
"9  c #453236",
"0  c #47313E",
"q  c #4A323C",
"w  c #4F393D",
"e  c #51373E",
"r  c #5E343A",
"t  c #533B3D",
"y  c #5C393C",
"u  c #6E252D",
"i  c #6C282F",
"p  c #622532",
"a  c #682631",
"s  c #662832",
"d  c #6A2932",
"f  c #642D3A",
"g  c #6C2D3B",
"h  c #732F3D",
"j  c #67303D",
"k  c #643B3B",
"l  c #73323D",
"z  c #7B313D",
"x  c #74393D",
"c  c #3D2441",
"v  c #472741",
"b  c #442A41",
"n  c #4F2A41",
"m  c #552D40",
"M  c #473043",
"N  c #4B3442",
"B  c #4D3B43",
"V  c #493148",
"C  c #4C3549",
"Z  c #4D3B4A",
"A  c #4E3F48",
"S  c #523B42",
"D  c #563B41",
"F  c #523E40",
"G  c #533C42",
"H  c #543C40",
"J  c #503A45",
"K  c #503846",
"L  c #553A44",
"P  c #523C46",
"I  c #533C46",
"U  c #593E43",
"Y  c #533C49",
"T  c #653341",
"R  c #6B3343",
"E  c #743143",
"W  c #733245",
"Q  c #7E3643",
"!  c #763842",
"~  c #7E3F4B",
"^  c #4F4147",
"/  c #554141",
"(  c #56414A",
")  c #84333E",
"_  c #88343E",
"`  c #8A343E",
"'  c #8B353E",
"]  c #8C353E",
"[  c #813640",
"{  c #853844",
"}  c #8C3947",
"|  c #8D3A49",
" . c #8F3A48",
".. c #903A47",
"X. c #933B48",
"o. c #923B49",
"O. c #933C4A",
"+. c #953D4A",
"@. c #983E4A",
"#. c #9A3E4B",
"$. c #93424C",
"%. c #924851",
"&. c #A6424E",
"*. c #AB444F",
"=. c #AD4450",
"-. c #B24651",
";. c #AC545A",
":. c #B7585E",
">. c #C66064",
",. c #CB6266",
"<. c #D67471",
"1. c #DC7774",
"2. c #E97E7A",
"3. c #ED948E",
"4. c #F49892",
"5. c #FABBAB",
"6. c #FFDEC4",
/* pixels */
"A A A B B + # = c = = = = = * c = = = = & c = c = & * * * * # & # = = c = = = = = = = = * & * B q B ",
"D t D D w @ ; ; O , , * , * , * * * * * * , = $ , c c O * , : ; , , * $ , = * , * * ; ; , ; ; Y t t ",
"D D t e q ; ; $ * c , * * , , * , * * , , * * , $ b O , 2 4 p 3 ; $ , $ , * , * $ , ; ; c , , J t / ",
"J I N 9 ; O * c * * * * * * * * * * * * * * * * * c v b m d u r M * * * * * * * * * * * c b c $ q t ",
"C V V 1 $ * * * & O c & c * * * * * * * * * * * * $ > 8 d u u r t 9 * * c $ # % * * * * * * * * b V ",
"* * * & $ * c * * * c * , v 1 * * * * * * * * * * % 7 d u u d r S B 1 * b 2 7 < , c * * $ * * * * $ ",
"* * * c * * * * * * $ $ f l f * = * * * * $ * * $ 4 s u u u u r t / 1 * c W +.Q b c * * * * * * = , ",
"c * * * c c * c $ , 1 1 l } z 7 $ m 2 2 , , , * 8 a u u u u i r G G 1 $ n o.-.+.v c * * * * * * * * ",
"c c c * * c * $ 1 0 J I ! ] _ +. .o.o.o.l p 4 l #.{ _ ] ] u u j S / > 5 l *.-.o.v c * * * * * * * * ",
"c * * c * 1 * * M N G H x ] ] -.-.-.-.-.-.u _ -.-.-.-.-.-.] i r t / q ..-.-.-. .v c * * * * * * * * ",
"c * * * $ * % 0 G G G t x ] _ -.,.2.,.-.-.-.,.,.,.,.,.,.,._ i y t 9 4 1.5.2.-.h v c * * * * * * * * ",
"* * * * $ % 1 B S t t t x _ ] -.2.4.2.-.,.2.2.2.2.2.2.2.2.-._ y q X ] 4.6.4.-.h 1 * * * $ * * * * * ",
"* * * * $ * B S J D t t k x ) _ ,.2.2.,.,.2.2.2.2.2.2.2.2.,.>.z l <.4.5.5.2.-.h v c * c * c * * * * ",
"# # c * * # B w I J G t w w r u _ ,.2.2.2.2.2.2.2.2.2.2.2.2.2.-.] 5.6.5.2.,.-. .v * * * * b * * * * ",
"% * c c * * N I J S H t G w j _ -.,.2.4.4.2.2.2.2.2.2.2.2.2.2.,.,.4.5.4.2.,.-. .1 * * $ = $ * * * , ",
"$ * $ b * * M q G S G t w 9 %.,.,.2.2.4.4.4.4.4.4.2.2.2.2.2.2.2.2.-.{ ,.2.,.-. .1 * 0 , N $ $ , * = ",
"$ * * * $ = $ , G I H L T [ ;.,.,.,.2.2.4.4.5.5.4.4.2.2.2.2.2.2.2.,.] -.,.-._ g > , t B ( > & = * * ",
", * * * * , = $ > > > 1 { *.-.,.,.,.,.,.2.5.5.5.5.4.4.2.2.2.2.2.2.,.,.-.] ] u 4 1 J S t ( % % $ * * ",
"* * * * * * * * % % $ $ | -.,.2.2.2.2.2.2.4.4.5.5.5.4.2.2.2.2.2.2.,.-.] ] u u 4 1 B G B A , % * * c ",
"* * * * * * * * * * * * g -.2.5.5.5.5.4.2.,.,.5.5.5.5.4.2.2.2.2.2.-.u u ] ] u p b Y Y B $ % * * * * ",
"* * * * * * * c , 6 m W z -.2.5.5.5.5.4.2.-.,.5.5.5.5.4.2.2.2.2.2.-.u u u u u 4 > 1 , * $ * * * * c ",
"* * * * * * * * 4 a _ *.*.-.2.5.5.5.5.4.2.,.2.5.6.5.5.4.4.2.2.2.2.-.u u u u u 4 * $ * $ * * * * * * ",
"* * = * * * O 3 a u ] -.-.-.2.4.5.5.5.4.2.-.2.6.6.5.5.4.4.4.2.2.,.-.-.-.,.,.,.;.8 < < , * * * * * * ",
"* * * * * * o a u u ] -.-.-.-.,.2.4.4.2.-._ 2.6.6.5.5.4.4.4.4.,.] -.2.5.6.6.6.3.-.d u 4 * * % * * $ ",
"$ , : 8 R ~ :.-.] ] ] -.,.,.-.] ,.2.2.,.,.,.4.5.6.5.5.4.4.4.4.-.u -.2.5.6.6.6.5.2.-.] d 6 , , * * * ",
"* 2 p { &.<.3.4.2.-.-.-.,.2.,.i ] ,.,.-.2.5.6.5.5.5.5.4.4.4.4.-.] ,.2.4.5.5.5.5.6.4.-.u u 4 , * * * ",
"* ; p u -.,.4.5.2.,.-.-.2.4.2.-.-.2.2.2.4.6.6.5.5.5.5.4.4.4.4.,.] ,.2.2.2.2.2.5.6.5.-.u u 4 ; * * * ",
"* , , 3 _ { -.,.,.-.,.2.2.4.4.4.5.5.5.5.5.5.5.5.5.4.4.4.4.4.4.,.u -.,.,.,.-.-.,.,.-.] p 3 < 1 $ * * ",
", $ , c 4 u u u ] -.,.2.4.4.5.5.6.6.6.6.6.5.5.5.5.4.4.4.4.4.4.,.] ] -.-.-.] ] u u u u 4 , * * # * * ",
"- : O , < 3 a u _ -.,.2.4.4.5.5.5.5.5.5.5.5.5.4.4.4.4.4.4.4.4.2.,.-.] ] ] -.-.-.u p 6 : * , * % > > ",
"H q @ , c c 4 a _ -.,.2.4.4.4.5.5.5.5.5.5.5.5.4.4.4.4.4.4.4.4.4.2.,.] ] ] -.,.-._ l , * $ = $ + N I ",
"J q O c , O $ 4 _ -.,.2.4.4.4.4.5.5.5.5.5.4.4.4.4.4.4.4.4.4.2.2.2.2.,.,.-.-.-.-._ E , * * $ , $ M A ",
"N 2 # $ * O v ; $.-.,.2.4.4.4.4.4.5.5.5.5.4.4.4.4.4.4.4.4.2.2.2.2.2.2.2.,.,.-.] ] h v * * * $ $ M C ",
"> $ * , * * c V $.-.,.2.,.-.2.4.4.5.5.4.4.4.4.4.4.,.,.,.,.-.-.,.2.2.2.2.,.,.-.] ] h , $ $ * * * $ 1 ",
"* * * * * * * n X.-.,.2.-.u ,.4.4.4.4.4.4.4.4.4.2.-.u ] ] u ] ,.2.2.2.2.,.-.-.] ] z , * * * * * = $ ",
"* * * * , * # $  .-.-.-.-.-.,.,.,.,.2.4.4.4.4.4.2.-.] -.,.-.-.,.,.,.,.,.,.-.-.] ] h < $ b $ * * * * ",
"c = = $ * * * 2 o.-.] u ,.2.,.u u u -.4.4.4.4.4.2.-.] ,.2.2.2.,.-.-.,.,.,.-.] ] _ ! 2 * * * * * * * ",
"c * = * $ * # 4 ) ] -.,.4.4.2.,.] u ] ,.2.4.4.4.2.-.] ,.4.4.4.,.-.-.,.,.,.-.] u u f = $ b * * * , = ",
"* * * * = , 4 u u u ,.4.5.5.4.2.,.u u u -.4.4.2.,.-.] ,.4.5.5.2.-.-.,.,.-.-.] u u f , $ * c * * $ * ",
"c c * 2 W  .) ] u u -.2.4.5.4.,.] u u -.,.2.4.2.,.] ] -.2.5.5.,.] -.,.,.-.] ] -.,.&.5 O * O * * , = ",
"c c * 8 #.-.-.-.] u u ] 2.4.2.u u u -.2.2.2.2.2.,.] u ] ,.5.5.,.u -.,.,.-.] u ,.2.,.u . $ $ * c * * ",
"* c * 6 ) ] ] _ ] u u u -.,.,.-.-.-.,.2.2.2.2.2.,.-.] ] -.2.2.,.-.,.,.-.] u u -.2.,.-.=.g < , * * * ",
"# $ $ , p u u u u u u u u ] ,.2.2.2.2.2.2.,.,.,.,.,.,.] u u ] ,.2.2.,.-.u u u _ -.,.2.,.} p , * $ * ",
"1 1 , , 3 p p 4 p p a u u u -.2.2.2.2.2.2.,.,.,.,.,.,.] u u ] ,.2.,.-.] u u u u ] -.,.-._ d , $ 1 1 ",
"I 9 # 1 , , b , * < p a u ] -.,.,.,.,.,.,.,.,.,.,.-.-.-.-.-.-.-.-.-.] ] u u u u u ] ] } u p , $ 1 ( ",
"w G N * c c c c * $ 6 a u ` -.-.-.-.-.-.-.,.,.,.-.-.-.-.-.-.-.-.] ] ] a p a p p p p p p a 4 ; M I J ",
"I Y B 1 > $ O v * * * < 4 u ] ] ] ] ] ] ] ] ] ] ] ] ] ] ] ] _ _ ] ] ] l , , < , , : ; < ; : 1 Y C J ",
"D e t D 2 ; , O * , $ , 4 u u u _ z ) ] ] u u u ] ] ] ] ] ] ] ) z z z f c , * , $ , , , , , ; L L L ",
"U D t t N @ ; % $ , * * 4 d u u p < f { u u u u u u u u u u i 4 6 6 2 , , * , * * * , $ , , 1 Y I L ",
"B I ^ B B + & = = = = = 4 u u u 4 = R [ u     u u u u u u u u 3 c * = = = = c = = = = = = = = Y Z A "
};
