/* XPM */
static char *c7474c124e7543ce934b07b68dd7931fChLwovgdA6aK7Myh[] = {
/* columns rows colors chars-per-pixel */
"50 50 207 2 ",
"   c black",
".  c #3B1B0D",
"X  c #3A2211",
"o  c #2D1C2E",
"O  c #361F35",
"+  c #272C2C",
"@  c #2B2D2C",
"#  c #37282C",
"$  c #37342E",
"%  c #3C322C",
"&  c #342636",
"*  c #3C2435",
"=  c #352936",
"-  c #3F2835",
";  c #3D253B",
":  c #372B38",
">  c #3A293C",
",  c #2D3231",
"<  c #2A3738",
"1  c #343435",
"2  c #3E3530",
"3  c #323837",
"4  c #3C3935",
"5  c #363539",
"6  c #3B363B",
"7  c #343A39",
"8  c #3B3D3C",
"9  c #4C1908",
"0  c #4D2C0C",
"q  c #572F1A",
"w  c #55311C",
"e  c #5B321C",
"r  c #663400",
"t  c #63331D",
"y  c #6B351A",
"u  c #412A26",
"i  c #47362D",
"p  c #5A3824",
"a  c #412535",
"s  c #422A35",
"d  c #41243B",
"f  c #432C3A",
"g  c #433833",
"h  c #4C3D33",
"j  c #47313E",
"k  c #4A313C",
"l  c #443B3C",
"z  c #4C3C3D",
"x  c #51373E",
"c  c #533A3E",
"v  c #663520",
"b  c #693622",
"n  c #653921",
"m  c #6E3922",
"M  c #743C26",
"N  c #7A3E26",
"B  c #753E29",
"V  c #7B3E29",
"C  c #3C403E",
"Z  c #4F453C",
"A  c #7B4226",
"S  c #7A4924",
"D  c #7D412A",
"F  c #3D2441",
"G  c #452D43",
"H  c #463643",
"J  c #4C3542",
"K  c #4D3B43",
"L  c #4B3449",
"P  c #4D3D4A",
"I  c #533B43",
"U  c #553A43",
"Y  c #533B49",
"T  c #3E4341",
"R  c #414543",
"E  c #4D4347",
"W  c #444946",
"Q  c #464B49",
"!  c #4A4D4B",
"~  c #594548",
"^  c #514D4C",
"/  c #4D514D",
"(  c #51544F",
")  c #4E5652",
"_  c #4F5853",
"`  c #525652",
"'  c #555A55",
"]  c #5A5A55",
"[  c #565E59",
"{  c #595D59",
"}  c #635045",
"|  c #645D58",
" . c #5D625C",
".. c #61655E",
"X. c #73655D",
"o. c #5C6863",
"O. c #636863",
"+. c #656A63",
"@. c #6A6D65",
"#. c #696E69",
"$. c #6C7067",
"%. c #6D726A",
"&. c #71756C",
"*. c #75796E",
"=. c #797B6F",
"-. c #737574",
";. c #757B71",
":. c #7A7D73",
">. c #7A7E75",
",. c #797B79",
"<. c #934F0A",
"1. c #A1581F",
"2. c #84442C",
"3. c #8A472E",
"4. c #844B2D",
"5. c #8D4B2E",
"6. c #914E2F",
"7. c #8E5425",
"8. c #8E562C",
"9. c #915726",
"0. c #925927",
"q. c #91522D",
"w. c #945928",
"e. c #894832",
"r. c #934D31",
"t. c #8F5231",
"y. c #965331",
"u. c #9B5433",
"i. c #9D5A34",
"p. c #A15636",
"a. c #A35C35",
"s. c #A85B37",
"d. c #A45C39",
"f. c #AB5D3A",
"g. c #9F6132",
"h. c #A36036",
"j. c #AB6337",
"k. c #AC6837",
"l. c #A5633A",
"z. c #AB633B",
"x. c #AD693A",
"c. c #B2653C",
"v. c #B46C3D",
"b. c #B96A3E",
"n. c #B5703D",
"m. c #BA723F",
"M. c #C17C3F",
"N. c #B25F42",
"B. c #B46442",
"V. c #B86343",
"C. c #B56B40",
"Z. c #BD7341",
"A. c #BA7441",
"S. c #A57A65",
"D. c #C36D47",
"F. c #C27543",
"G. c #C47A44",
"H. c #CA7D46",
"J. c #C57448",
"K. c #C97649",
"L. c #CD7E49",
"P. c #D07D4B",
"I. c #7D8076",
"U. c #7E837A",
"Y. c #808275",
"T. c #81857B",
"R. c #85897E",
"E. c #CC8146",
"W. c #CE8B46",
"Q. c #CE8249",
"!. c #D2844B",
"~. c #D48549",
"^. c #D5894C",
"/. c #D98C4E",
"(. c #D7964A",
"). c #DC934D",
"_. c #DA8652",
"`. c #DC8B51",
"'. c #DF9250",
"]. c #DF9C54",
"[. c #E3974E",
"{. c #E09A4E",
"}. c #E08C51",
"|. c #E39354",
" X c #E39D51",
".X c #E99A58",
"XX c #E4A24F",
"oX c #E5A352",
"OX c #EAA455",
"+X c #E7A853",
"@X c #ECAA55",
"#X c #ECA459",
"$X c #EFAA5B",
"%X c #F1A95C",
"&X c #868C82",
"*X c #898D84",
"=X c #8B9086",
"-X c #8E938A",
";X c #91968C",
":X c #93988E",
">X c gray58",
",X c #959A91",
"<X c #CEBCB7",
"1X c #CAC3C1",
"2X c #CACBCB",
"3X c gainsboro",
"4X c #E4DEDC",
/* pixels */
"P E E I z # * > ; F > > > > ; > F > > > ! ;.-.-.&.;.;.;.! > & = > > > > ; > ; > > ; : : > > ; P l K ",
"c c c c z * a * ; d ; ; ; ; d ; ; ; ; = :XI.T.T.U.I.:.*.T.H * ; a * ; ; ; ; d ; ; ; a d d d a I c c ",
"U U c x k a a O ; d ; ; ; ; d d d ; ; = =X>.T.=.I.>.O.+.+.6 a d a d d ; ; d d d d d a * d d d I c c ",
"I Y I f a d O F ; ; ; * ; ; ; ; ; ; ; & $.>.*.Y.>.>.O.@.' Y L I j ; ; ; ; ; ; ; ; ; d ; F F ; d k c ",
"L L G G ; ; ; ; & O F F F ; ; > ; ; ; ; ' ;.;.=.I.>.%.+.Q I x c I k * > G ; > * ; ; ; ; ; ; ; ; G J ",
"* ; ; O ; ; ; d F ; F ; ; ; ; > > ; 8 W / %.U.;.I.%.>.%.! ' 4 c c z f ; F ; * * ; F ; ; ; ; * ; ; d ",
"; ; ; F F ; ; ; * * ; ' ..> 5 : ^ ,.*X>.C ;.&.+.>.;.I.&.T :X*XI.' E f K >.& ; * ; F ; ; ; ; ; ; ; ; ",
"F ; ; ; F F ; ; > f ..=X&.! F T.&X%.%.%.T +.I.;.>.;.;.I.%.U.%.#.=X+.l T.&X-Xl > F F ; ; ; ; ; ; ; ; ",
"F F ; F ; ; ; ; f -.*.;.I.#./ U.;.>.U.;. .>.U.U.U.>.&.%.T.>.;.%.&...T.R.=XY.T.: F F ; ; ; ; ; ; ; ; ",
"F F F ; ; > * ; ..U.*.I.;.I.;.[ U.%.*.-.) [ o.o.o.O.o.' &X%.>.&.%.` R.R.R.T.Y.&.F F ; ; ; ; ; ; ; ; ",
"; F ; * > - * G 6 %.$.%.*.&.U.' $.$.@.9 D S g.t.l.f.u.r.y ~ O.;./ -XY.U.Y.Y.R./ ; F ; ; ; ; ; ; ; ; ",
"; ; ; ; - * k I I l %.;.*.&.I.I.2 w i.y.d.d.B.t.G.C.z.z.l.B.4.. %.R.T.I.R.R.Q - ; ; d ; ; ; ; ; ; ; ",
"> * ; ; ; - I K I #. .;.*.%.*.2 n C.z.i.B.C.C.N.!.J.Z.A.v.v.z.B.p  .%.>.T.C =.R ; ; F ; ; ; ; ; ; ; ",
"* ; ; ; ; & J z ..*XT.R ;...g S y.C.C.v.Z.Z.K.A.'._.!.L.G.H.B.Z.B.w ) o./ T.T.$.= F F ; ; ; ; ; ; ; ",
"; ; ; F F > J z T.=.&.@.8 8 4.g.y.G.G.A.Q.Q.!.A.#X_._.Q.Q._.Z.!.A.z.e , ;XT.*XI.] ; > * > * ; ; ; ; ",
"* ; ; F * ; G  .*.;.R.U.Z S z.l.g.^.Q.Q.!.^.^.A.%X'.^.^.!.`.E._.E.C.C.w $.=.R.I.%.& j f k * ; ; ; ; ",
"* ; ; ; O ; ! Q O.*.>.#.A h.v.m.C.).!.Q.^././.A.$X].`.Q.^.^.Q.|.Q.Z.A.l.~ >.*.&./ ' Z K ~ > ; ; ; ; ",
"d ; ; ; ; d ..R.@.+.%.X i.x.Z.G.C.(.^.!.).'.`.E.$X`.^.Q.^.Q.Q.].^.H.G.C.w. . . .U. .z z ~ * * ; ; ; ",
"; ; ; ; ; ; I.&.&.T.) 8.h.A.L.E.A. X^.^.'.!./.E.$X_.!.Q.^.!.Q.W./.H.H.A.l.u T.%.;.*.^ I I f * ; ; ; ",
"; ; ; ; ; O *.&.;.$.{ g.C.G.Q.!.v.$X_.`.).^.!.Z.$X^.!.L.Q.^.^.W.^.Q.E.Z.n.D @.;.&.=.] J * * f ; ; F ",
"; ; ; ; ; o ;.=.*.&.} k.Z.H.Q.^.v.+X!./.`.!.^.Z.%X!.!.Q.Q.Q.W.(.!.Q.H.G.v.l.@.&.&.=.( f & f ; d ; ; ",
"; ; a > ; T ! R R W S Z.H.!.^.^.A.@X^.).!.Q.^.Z.%X_.^.Q.`.'.W.(./.W.!.E.Z.Q.R T T Z W ; ; ; ; ; ; ; ",
"; ; ; / @.&XI.U.&X .7.L.!.!././.A.%X/./.!.^.!.G.oX_.).).'.`.!.].`.^.Q.^.Q.C.g T.U.U.*XU.:.! d * ; ; ",
"; ; ; +.%.I.@.O.;.[ 0.E.P.!././.A.$X^.^.Q.^.Q.E.oX^.`.(.).`.!.oX_.^.Q.^.^.Z.h U.,.T.T.&.>.W ; ; ; ; ",
"; ; ; @.$.>.*XT.@. .0.E.!.!.!._.A.%X/.!.!.^.Q.G. X_.'.'.!._.Q.@X/.!.E.!.!.W.i T.;.>.I.I.I.! ; ; ; ; ",
"; ; ; ..$.U.-.S.*.) 0.E.!.~.^.!.A.$X!.!.!.^.Q.E.oX^.`.'.!.^.E.+X_.!.E.!.^.).i ;X:.:.I.:.Y.W * ; ; ; ",
"; * ; ' %.&.%.%.>.' 0.H.E.!.!.!.C.$X!.Q.Q.!.Q.Z.+X!./.`.!.^.L.+X`.!.Q.Q.!.oXi -X;.&.I.%.@.W ; ; ; ; ",
"; ; ; ( O.o.o.o.%.) 0.G.L.!.!.^.m.%XQ.Q.Q.!.E.H.@X!./.^.!.!.G.#X~.Q.H.Q.L.OXg T.$.@.....{ R ; ; ; ; ",
"; ; > H T T 8 8 C C 7.Q.!.!.L.^.n.@X!.Q.H.Q.E.F.#X!.!.Q.!.!.K.oXQ.~.L.~.H.+XZ 8 8 8 T T R C ; ; ; ; ",
"u s * d ; 5 *X,XR. .7.E.L.^.L.!.k.OX!.H.H.Q.H.Z.OX!.L.Q.Q.!.G. X~.H.L.L.H. X2 &X=X>.` ; > * - * s * ",
"U k * d F 5 T.-X=. .0.Q.!.Q.!.Q.v.OX!.Q.Q.!.Q.Z.+X!.Q.Q.Q.Q.K.].H.H.H.L.K.+X% :X%.*.( ; ; * * * J I ",
"I k O ; ; 5 &.T.I. .0.L.P.!.!.L.A.OXQ.H.Q.!.Q.K. XL.H.L.Q.H.H.oXM.K.F.G.F.].i -XI.*.] ; ; ; * * k P ",
"J j * ; ; 5 $.Y.Y.' 0.H.Q.Q.!.E.n.OXP.L.Q.Q.Q.H.oXL.L.L.H.H.Q.oXL.S.1X4X<X).h T.@.@.` ; ; ; * * J J ",
"* s ; ; ; 6 &.;.@.' 9.H.L.Q.L.!.v.OXQ.H.Q.~.~.m.{.L.P.Q.L.L.~.oXH.% ` ,.X. Xh >.+. ./ * ; ; ; ; * d ",
"; ; ; ; ; 7 @.@.../ 0.Q.L.E.H.L.l.@XL.L.~.L.!.b. X!.E.~.!.P.W.oXH.= 1 ,.| (.8 %.$.+.` > ; ; ; ; ; > ",
"; ; ; 6 1 + @ , + < 0.H.E.L.L.E.v.@X!.!.L.!.~.F.OX~.E.~.L.^.H.oX<.2Xl ] 2X1.Z 3 3 3 3 5 R R ; ; ; ; ",
"; ; ; { *X;X:X,X-X+.0.L.L.H.L.L.m.OX!.Q.~.~.P.M.#X!.L.~.Q.!.L.+X<.>X4 8 -.r % ,X*X*XT.R.:.! ; ; ; ; ",
"F ; ;  .*.=.>.:.I.` 7.L.Q.G.H.H.k.[.!.P.~.L.~.n..X!.G.~.Q.L.H.oX7.-.#.Q ,.r 2 U...&.T.T.Y.W ; ; ; ; ",
"; ; ; o.$.U.T.=.&.` 7.H.H.H.H.G.h.[.P.H.L.L.^.n._.!.G.L.L.H.F.{.a.C 2X3X[ X % -X@.&.R.R.:./ ; ; * * ",
"F F ; $.*.T.I.*.$. .7.K.K.F.b.F.u.XXP.H.P.H.L.v.|.P.M.K.H.H.M.).i..     0 A.# ,XI.S.=.*.I./ d ; ; ; ",
"F F ;  .=.:.Y.*.%.) w.F.F.D.b.b.9.[.K.F.H.F.K.c.[.K.b.M.M.M.v.(.j.L.H.G.H. X@ *XU.;.T.;.=.! ; F ; ; ",
"; ; ; ' =.:.&.+.+.Q q.F.F.c.V.c.3.).D.b.H.b.F.s.|.m.c.b.c.b.c.~.f.b.M.i.a.).1 *.U.;.;.>.$.T ; ; ; ; ",
"> ; ; T ^ ( 7 W T T 4.Z.z.f.c.c.3.(.V.c.M.c.M.p.}.b.a.j.c.c.a.E.u.p.i.6.q.^.7 7 < T / W 1 8 ; > ; > ",
"f a ; ; ; 5 >.=X&X .A u.p.p.p.p.N /.c.s.b.f.b.r._.j.p.s.s.f.p.F.y.y.q.3.5.E.$ R.-X&X[ : ; ; ; ; f f ",
"I j * > & 6 #.:.;...N r.u.p.r.u.N ~.s.p.c.f.c.r.P.s.p.p.p.p.r.F.r.2.A B 2.H.@ ;X&.&.` ; F ; ; * f Y ",
"z I J f G 5 :.-.%...y r.6.6.r.r.m V.u.6.p.p.s.3.K.u.6.u.r.r.r.a.3.N N A N j.% *X:.>.` ; ; F ; H Y I ",
"Y Y J f a 1 T.*.*...y 2.2.3.D D t f.3.3.r.u.3.3.V.3.3.2.e.2.2.u.A M V M M p., T.*.&. .* d * f I I I ",
"c c c c k 5 ;.$.O.` t V N V N M t p.3.D 3.r.3.2.N.3.V M 2.V V 2.A M N M M q.1 *.;.U...d d a d Y Y U ",
"U c x c x 4 #.....) t M M M M v e u.2.V V 3.V V N.V B M B M B M B b m m v r.4 *.;.T. .d d d d Y U Y ",
"K ~ E K K 8 T W W 7 t t t e v e q V v v v M v v 2.b v v v t t t t e e e e v $ R W W W : > > : P P Y "
};
