/* XPM */
static char *_96979919458463fe4879529a0f014fdtg6KFFW6lf1D3SfR[] = {
/* columns rows colors chars-per-pixel */
"50 50 187 2 ",
"   c #361F0C",
".  c #3D2210",
"X  c #2C1A2D",
"o  c #361F35",
"O  c #292A2D",
"+  c #34252E",
"@  c #3C292A",
"#  c #2D2C31",
"$  c #342635",
"%  c #3B2435",
"&  c #342A35",
"*  c #3E2934",
"=  c #3D253B",
"-  c #372B38",
";  c #3A283C",
":  c #2E3332",
">  c #333335",
",  c #383536",
"<  c #323837",
"1  c #3B3937",
"2  c #363539",
"3  c #3B363B",
"4  c #343939",
"5  c #3A3C3C",
"6  c #5A0000",
"7  c #45270C",
"8  c #542100",
"9  c #522F0D",
"0  c #55310D",
"q  c #58320F",
"w  c #492A13",
"e  c #5B3511",
"r  c #5F3813",
"t  c #603813",
"y  c #613B1C",
"u  c #73381F",
"i  c #412A2D",
"p  c #422535",
"a  c #412936",
"s  c #482837",
"d  c #40243B",
"f  c #432C3B",
"g  c #4C2A38",
"h  c #443334",
"j  c #473734",
"k  c #47313D",
"l  c #4A323D",
"z  c #45393C",
"x  c #4D3B3D",
"c  c #5A3436",
"v  c #51373E",
"b  c #533B3D",
"n  c #6C3725",
"m  c #6E3A24",
"M  c #783D27",
"N  c #3C403E",
"B  c #7D4200",
"V  c #77471E",
"C  c #77481F",
"Z  c #43403E",
"A  c #4D4039",
"S  c #624125",
"D  c #6C4427",
"F  c #754523",
"G  c #744726",
"H  c #7A4127",
"J  c #7A4A23",
"K  c #7C4529",
"L  c #744929",
"P  c #7B4C2A",
"I  c #7E502C",
"U  c #774C3C",
"Y  c #3D2441",
"T  c #402340",
"R  c #442C43",
"E  c #473043",
"W  c #4B3442",
"Q  c #453D44",
"!  c #4D3B43",
"~  c #4B3449",
"^  c #4D3D4A",
"/  c #533B43",
"(  c #553A43",
")  c #533B49",
"_  c #3D4240",
"`  c #3C4849",
"'  c #424544",
"]  c #4C4447",
"[  c #444946",
"{  c #464B48",
"}  c #4A4D4B",
"|  c #554144",
" . c #56414A",
".. c #514C4C",
"X. c #4D514D",
"o. c #51544F",
"O. c #4D5451",
"+. c #525651",
"@. c #5A5651",
"#. c #555A55",
"$. c #595C57",
"%. c #595E59",
"&. c #5D625C",
"*. c #61655E",
"=. c #5A6864",
"-. c #626661",
";. c #656962",
":. c #6A6D65",
">. c #676E68",
",. c #696E69",
"<. c #796E62",
"1. c #6C7067",
"2. c #6E726A",
"3. c #72756C",
"4. c #75796E",
"5. c #797B6F",
"6. c #717771",
"7. c #757B71",
"8. c #7A7E73",
"9. c #7C7E7A",
"0. c #84452B",
"q. c #854D2C",
"w. c #8A4C29",
"e. c #904D2F",
"r. c #855124",
"t. c #895426",
"y. c #81532E",
"u. c #8E5728",
"i. c #92552A",
"p. c #9A562C",
"a. c #925A2A",
"s. c #835431",
"d. c #84503D",
"f. c #915331",
"g. c #995333",
"h. c #965E35",
"j. c #9C5D34",
"k. c #9B5E3A",
"l. c #9A6238",
"z. c #A36136",
"x. c #A5633A",
"c. c #AA6539",
"v. c #A76B3A",
"b. c #AC6B3C",
"n. c #B46C3D",
"m. c #BB6F3F",
"M. c #B4733E",
"N. c #B9743F",
"B. c #BF783F",
"V. c #C1763A",
"C. c #8A5846",
"Z. c #935C41",
"A. c #AE6E43",
"S. c #B36E42",
"D. c #AF7143",
"F. c #B27244",
"G. c #BC7441",
"H. c #BD7A42",
"J. c #B77649",
"K. c #BB794C",
"L. c #C17642",
"P. c #C37D43",
"I. c #C37D4B",
"U. c #7D8076",
"Y. c #7E837A",
"T. c #808275",
"R. c #81857B",
"E. c #85897E",
"W. c #C58144",
"Q. c #C88045",
"!. c #C7804D",
"~. c #C9814D",
"^. c #CC8451",
"/. c #D18953",
"(. c #868B82",
"). c #898D84",
"_. c #8B9086",
"`. c #8E938A",
"'. c #91968C",
"]. c #93988E",
"[. c #8F9090",
"{. c #959A91",
"}. c #979D9E",
"|. c #BB9382",
" X c #A09F9F",
".X c #BBBBBC",
"XX c #E8EAEA",
/* pixels */
"^ ] | ! Q + % ; = = Y ; ; ; ; ; ; = ; ; ` 7.7.6.6.6.7.7.} = $ ; * ; ; ; ; ; = ; ; ; - = = = ; ^ z Q ",
"( b ( b v i p % = d = = = = d = = = = & '.U.Y.E.Y.Y.7.4.R.Q % = p d = = = = d = = = p % d p a ( b c ",
"b b b v v p p = = = = = = = d d d d = & `.Y.(.(.Y.Y.=.>.;.3 % p p d d = = d d d d d p d d T d ( / b ",
") ) ( f p o Y o = = = = = = = = = = = - =.Y.U.C.7.7.;.:.$.) ~ ( f = = = = = = = = = = = Y Y = = l A ",
"~ ~ R R = = = = $ = o = Y = Y * = = = = #.7.7.5.9.7.2.;.[ / v v b l * = Y = % % = = = = = = = = E ~ ",
"= = = = = = = = = = Y Y = ; ; ; = = 5 [ X.2.Y.7.C.3.7.3.} #.1 b / ! f ; R = % f = = = = = = % = = d ",
"= = Y T = = = = ; = = #.*.= 3 - } 8.).U._ 7.3.;.(.Y.8.7.` ].).U.%.z f ] 9.$ 3 % = Y = = = = f = d = ",
"= = o = Y Y = = % f &._.4...Y Y.(.3.,.2._ ;.U.7.Y.Y.7.7.2.Y.2.2.).;.z R.(.`.Y * Y Y = = = = = = = = ",
"Y Y Y Y = = = = f 4.7.7.U.>.X.Y.7.U.Y.7.&.9.Y.T.Y.U.2.2.Y.7.7.4.2.*.R.E.E.R.T.- Y Y = = = = = = = = ",
"Y = Y = = = = ; &.Y.7.8.7.U.7.#.Y.2.4.4.O.O.=.=.=.=.;.#.(.2.7.2.3.+.E.E.E.E.U.3.Y = = = = = = = = = ",
"Y = = = = * = k 3 2.1.2.4.3.Y.#.,.2.<.J l.l.H.F.; $ R W s ..;.4.X.`.T.R.T.T.E.o.= Y = = = = = = = = ",
"= = % = * % k / ) z 2.4.4.3.U.U.j D H.K.D.D.!.K.; = d a x b h , :.E.E.Y.E.E.{ a = = = = = = = = = = ",
"= = = ; = % W / v 2.&.7.4.3.5.j D P !.K.D.F.~.K.; d % % l l f l + &.2.8.R.5 7.' = = Y = Y = = = = = ",
"% % = Y = % ! x *.).Y.[ 7.&.j P u.s.~.K.F.F.~.K.= = = d = = = = = X o.*.X.E.R.1.& Y Y = = = = = = = ",
"* ; = = = = W Q R.7.3.:.5 A y x.j.y.~.I.F.F.~.K.= = = = = = = = = = X > '.R.).U.$.= * = * = = = = = ",
"= = = Y = = k &.4.7.E.T.Z h.J c.x.y.~.I.F.J.^.K.= = = = = = = = = = = X :.7.R.8.3.- k * l % = = = = ",
"= = = = o = ..{ *.4.7.>.q.H.r.n.x.y.^.!.F.F.^.K.= = = = = = = = = = = ; ] 5.4.3.X.#.x /  .a * = = Y ",
"= = = = = = -.E.2.;.2.S c.L.u.G.z.y.!.K.F.D.~.K.= = = = = = = = = = = Y = %.&.&.R.&.x x | * = = = = ",
"= = = = = = T.2.2.R.X.H.n.P.u.N.j.I ~.I.F.J.^.K.= = = = = = = = = Y = = % + 7.3.7.4.../ ) f = = = = ",
"% = = = = o 4.3.5.2.$.H.G.Q.a.m.z.s.^.!.F.F./.J.= ; = = = = = = = = Y Y = $ >.3.3.4.@.! % % = = = = ",
"= d = = ; + 7.5.4.3.Z W.N.P.t.G.z.I ^.I.F.F.|.p.= = = = = = = = = = = = = % :.3.3.5.o.f o f * = = Y ",
"= = = * ; ' { ' ' [ 9 W.x.H.J m.v.y.^.I.F.V.}.p.Y @ % ; ; Y = = * = = = = % ' ` ' Z [ = * = = = = = ",
"= = = X.;.Y.Y.Y.(.&.e W.c.H.t.N.c.y.~.I.D.i.` u Y % = = Y Y = = = = = = = = > Y.Y.Y.).Y.9.{ d = = = ",
"= = = ;.3.U.:.;.6.&.r H.c.P.i.L.x.I I.I.F.B }..X= Y R ~ E R = Y Y = = = = = > U.U.R.R.3.8.{ = = = = ",
"= = = :.2.7.).E.:.&.r W.n.W.u.M.j.y.^.K.D.Y.6 XX= Y E ) ) j % d Y Y = = = = > E.7.7.U.U.C.[ = = = = ",
"= = = *.2.9.5.T.4.+.r H.G.P.u.n.j.y.~.I.F. X8 .X= = l / A b / f = = = = = = # `.U.U.U.U.(.[ = = = = ",
"= = = #.1.3.3.3.U.%.r W.L.P.u.n.k.s.^.I.D.).[.Y = % a h b b b f = = = = = = & _.4.2.U.2.6.` = = = = ",
"= = = o.-.*.*.-.2.+.e N.L.Q.u.n.x.y.^.!.F.w { q.= % % a l ) ) f = = = = = = > R.2.:.;.=.&.` = = = = ",
"= * 3 Y ' Q N 5 5 N e N.P.V.J n.x.I ^.I.A.u.G.K.= d d d d d R T T Y = = = = 5 5 N N _ _ _ _ = = = = ",
"i a p d = > ).].E.*.q N.L.P.C n.A.I !.!.A.A.I.F.% = d = = = = = = * * = = ; > (.(.7.#.; * % f % a * ",
"( l o d = > R.`.5.*.9 G.L.P.C n.F.L !.K.S.F.I.A.= = = = = = = = = = * = = ; # {.2.4.o.= = % % + l  .",
"/ l % T = 3 3.R.9.&.e G.L.V.F G.S.L !.I.F.F.K.S.* = = = = = = = = = = = = = # `.U.4.#.= = = d % l ^ ",
"! l % = = 5 2.9.T.$.0 N.N.Q.t.H.S.P ^.I.F.F.I.K.= = = = = = = = = = = = = = > R.>.:.+.= = = % % E W ",
"% p = = = > 3.5.1.#.r H.L.P.r.N.A.I ^.I.D.F.I.J.= = = = = = = % = = = o % a > U.;.&.X.= = = = % = * ",
"= = = = = 1 :.;.*.X.q N.L.V.F n.A.P I.I.F.F.I.A.d = = = = = = = d o f E l l 1 3.:.;.O.= d = = = = = ",
"= = = 1 < O O : O < 0 N.G.P.V G.c.L I.I.F.A.L.D.; = = = = = = = d = ~ / / / Z < < < < 4 ' [ = = * = ",
"= = = %.).'.].{._.>.e B.G.P.i.c.x.L I.I.F.F.G.F.= = = = = = = = R W ) ( b b > ]._.E.R.E.8.{ d = = = ",
"Y = = &.7.5.9.8.U.#.e N.L.G.F p.x.P I.I.J.F.G.Z.Y = Y d = = * % d ( ( / b b , T.*.3.R.R.T.[ = = = = ",
"Y = = =.1.T.R.5.2.#.q N.n.N.C e.k.G I.I.F.F.d.= Y Y = = = % * % f ( ( / ( / > `.:.<.E.E.9.X.= = = % ",
"Y = = ,.4.R.U.4.1.&.9 N.x.N.V e.f.G K.K.F.U % = Y = = = = % = % f ! / / / / > '.U.Y.5.4.U.X.= = = = ",
"Y Y = &.5.U.R.5.2.X.t B.u.n.w K q.D K.J.Z.% * = Y Y = Y = = % % * l l / / b N Y.R.5.E.7.5.X.= = = = ",
"= = = #.5.7.3.;.;.X.q M.r.c.w M K D K.C.= % % * Y = = = = ; % = % a l ! ) Q N U.R.5.8.7.2.5 Y = = = ",
"% = = ' X.X.< _ [ ` 0 M.w.g.7 n D L C.o R / ! f Y = = = = = = = = % % f h f Y N < ' { { : 5 = = = % ",
"f f ; d = > U.`.E.&.0 M.0.0.7 n n c Y $ ! l / f = = Y = = = Y = = % % = = $ > (.`.).#.* ; = = = f E ",
"/ h % ; = 3 2.7.7.*.9 Q.M H . m s = = = l | | f = = = = Y = = = Y = Y = Y = # `.3.3.+.= Y Y = % f ) ",
"x / W d Y 3 7.7.1.*.0 b.M M   s = = Y = f @ a % Y = Y = = = Y Y = Y o Y Y Y # `.7.8.#.= = = = W ! / ",
"( ) ! f a > Y.3.4.*.9 v.m 0.g = = = = = = = = = = = = = = = = = = = Y ; = = > T.4.3.*.% % = f / / / ",
"( b b ( l , 7.2.;.#.9 v.n c d d d d d d d d d = d d d = d d d d d = = = d d 2 7.7.T.&.d d p s ) ( ) ",
"( ( b b v 3 :.*.*.#.9 v.p = = = = = = = d = d = = = = = = d = = = d = = = = > 7.7.R.=.d d p s ) ) ) ",
"] | ] ! ! 5 ' [ ' 4 ; ; ; = ; ; ; ; ; ; ; ; Y ; ; ; ; ; ; ; ; ; ; = ; ; = ; > ' ' [ ' ; ; = ; ^ ^ ^ "
};
