/* XPM */
static char *_0ab20205ca548e4c0041dbba8c8ede3vhfWE3irIYRM83v5[] = {
/* columns rows colors chars-per-pixel */
"50 50 146 2 ",
"   c black",
".  c #361F0C",
"X  c #3D2210",
"o  c #2C1A2D",
"O  c #361F35",
"+  c #272C2D",
"@  c #282E2D",
"#  c #34252E",
"$  c #3C2829",
"%  c #2D2B32",
"&  c #342636",
"*  c #3B2435",
"=  c #352936",
"-  c #3F2A34",
";  c #372738",
":  c #3D253B",
">  c #372E38",
",  c #3A283C",
"<  c #2E3332",
"1  c #333436",
"2  c #333937",
"3  c #3B3937",
"4  c #363539",
"5  c #3B363B",
"6  c #363A39",
"7  c #3B3C3C",
"8  c #40240F",
"9  c #522F0D",
"0  c #55310D",
"q  c #442711",
"w  c #593310",
"e  c #613B1C",
"r  c #412A2D",
"t  c #422535",
"y  c #412935",
"u  c #482837",
"i  c #40243B",
"p  c #432C3A",
"a  c #4C2A38",
"s  c #443334",
"d  c #443832",
"f  c #493A33",
"g  c #47303E",
"h  c #49323C",
"j  c #45393C",
"k  c #4C3B3E",
"l  c #51373E",
"z  c #5E333A",
"x  c #533A3E",
"c  c #6C3524",
"v  c #6E3A24",
"b  c #6E3C28",
"n  c #763B26",
"m  c #7D3F28",
"M  c #612838",
"N  c #3C413E",
"B  c #44403C",
"V  c #4D4039",
"C  c #624125",
"Z  c #6A4427",
"A  c #7F4B29",
"S  c #7E502B",
"D  c #3D2441",
"F  c #452D43",
"G  c #473043",
"H  c #4C3542",
"J  c #453D44",
"K  c #4D3B43",
"L  c #4B3449",
"P  c #4D3D4A",
"I  c #513543",
"U  c #533B43",
"Y  c #593E43",
"T  c #533B49",
"R  c #733543",
"E  c #7D3942",
"W  c #3E4240",
"Q  c #414544",
"!  c #4F4147",
"~  c #444946",
"^  c #464B48",
"/  c #4A4D4B",
"(  c #554144",
")  c #56414A",
"_  c #514C4C",
"`  c #4D514D",
"'  c #4D5552",
"]  c #525652",
"[  c #5A5651",
"{  c #555A54",
"}  c #595C56",
"|  c #595E59",
" . c #5E625C",
".. c #61655E",
"X. c #566561",
"o. c #5E6A66",
"O. c #626661",
"+. c #656A63",
"@. c #6A6E66",
"#. c #696F69",
"$. c #6C7067",
"%. c #6D726A",
"&. c #71756C",
"*. c #75796E",
"=. c #797B6F",
"-. c #717771",
";. c #757B71",
":. c #7A7E73",
">. c #7A7F78",
",. c #84452B",
"<. c #864C2A",
"1. c #855022",
"2. c #955433",
"3. c #965E35",
"4. c #9A6238",
"5. c #A76439",
"6. c #A76B3A",
"7. c #AB693B",
"8. c #B3733D",
"9. c #944851",
"0. c #A25050",
"q. c #B55758",
"w. c #B17243",
"e. c #BD7A42",
"r. c #BC7A4B",
"t. c #C67F4D",
"y. c #D16D6D",
"u. c #E87D7D",
"i. c #7D8176",
"p. c #7F837A",
"a. c #808276",
"s. c #81857B",
"d. c #85897E",
"f. c #C68248",
"g. c #C7804E",
"h. c #868B82",
"j. c #898D84",
"k. c #8B9086",
"l. c #8E948A",
"z. c #93988E",
"x. c #979B91",
"c. c #FA978E",
"v. c #FCB0A9",
"b. c #FFD1CC",
"n. c #FFF5CF",
"m. c white",
/* pixels */
"P ! ( K J # ; , D , , , , D , , , , , , ^ ;.-.-.-.-.-.;._ , & ; * , , , , , , , , , ; ; : ; , K H H ",
"x x x x l r t * i i : i : : i : : : : & x.a.s.s.a.>.:.*.s.J * i t : : : : : i : : : t t i i p Y x x ",
"U Y U x a t t i i O O : : i i i i i i = j.:.a.:.p.>.O.@.+.5 * u * i i i i i i i i i t i i i p I x x ",
"U U H p y O D O F O F ; : : : : : : : = @.>.:.:.:.>...@.} T I L H : : : : : : : : : : i D D : : k x ",
"L L F F i : : : * O D D D D , : : : ; : } ;.;.:.:.-.%.+.~ U k x x h * * D : : * : : : : : : : i F L ",
"* , : * : : : : D , D : , : : , : : 7 ~ / &.a.;.a.&.:.&./ { 3 U U x p , D : - - : : : : : : * : * : ",
": : D : : : : D * * ; { ..: , = / >.h.i.7 ;.%.+.:.:.>.&.~ z.h.i.| J p J :.& - : : D : : : : : : : : ",
"O D : : D D : : : p O.j.&._ 4 p.j.&.$.%.W @.p.*.:.-.>.;.#.p.%.$.j.@.j s.h.l.5 : D D : : : : : : ; : ",
"D D D D * D : : i *.u.u.i.#./ h.i.i.i.i.X.p.9.>.a.>.&.%.p.;.;.&.%...a.d.k.a.s.> D D : : : : : : : : ",
"D D : D : : ; p  .q.n.n.u.i.;.{ i.#.-.-.' X.o.o.O.@.+.{ h.%.;.%.&.] d.d.d.d.a.*.D D : : : : : : : : ",
": : : : - : - g 5 q.n.n.q.*.p.} o.%.o.Z 4.4.e.w.: : p H s / @.*./ l.a.a.a.a.d.` : D : : : : : : : : ",
": : : : : * g K U j y.q.&.&.i.i.N C g.g.6.f.t.r.: i i y U x s - %.j.s.i.d.d.^ * : : : : : : : : : : ",
": : : : : * U U I %. .;.;.%.*.d Z S f.r.w.w.g.r.: : - * p g g g #  .%.>.s.B :.Q : , : D : D : * : : ",
"- : : D : & H k ..j.p.~ ;...f A 2.1.g.f.w.q.u.u.u.u.q.q.: : : i : o ] ..` s.a.$.= D : : : D : : : : ",
"- : : : : * L J s.*.&.@.6 V e u.v.v.u.u.u.v.v.v.v.v.v.u.u.q.q.q.: : o < l.p.j.i.| : : * * * : : : : ",
": : : D : : g  .*.;.d.a.B 3.u.b.b.b.b.n.n.n.v.v.v.v.n.n.n.v.v.v.u.q.q.o @.>.s.:.&.& g y H * - : : : ",
": : : : O : _ ^ ..*.i.o.<.e.q.b.m.n.n.n.v.v.v.v.v.v.v.v.v.n.n.n.m.n.n.q.q.:.*.&.` ] ( K ) p - : : : ",
": : : : : : ..h.%...%.C 5.c.n.n.m.m.n.v.v.v.v.v.v.v.v.v.v.v.n.n.n.m.m.m.q.q.} ..a...k k T - : : : : ",
": : : : : : a.%.&.p./ e.c.n.m.m.m.n.v.v.v.v.v.v.v.v.v.v.v.v.v.v.n.m.m.m.m.u.q.&.;.&._ U K p - : : D ",
": - : : : O *.&.i.%.} c.m.m.n.n.v.v.v.v.c.c.c.c.c.c.c.c.c.v.v.v.v.v.n.m.m.m.u.q.&.=.[ H * - : : : : ",
": : : : : o :.=.&.&.q.m.m.n.v.v.v.c.c.c.c.c.c.c.c.c.c.c.c.c.c.v.v.v.n.m.m.m.m.u.q.:.` p * i : : : : ",
": : : : , Q ^ Q N ~ q.m.n.v.v.c.c.c.c.c.c.c.c.c.c.c.c.c.c.c.c.c.c.v.v.v.n.n.m.m.q.B ~ , p : : : : : ",
": : : ` @.s.i.s.d.y.m.m.v.v.c.c.c.c.c.c.c.c.c.c.c.c.c.c.c.c.c.c.c.c.c.v.v.v.n.m.u.q.j.i.;./ : : : : ",
": : : +.%.i.@.+.*.y.m.v.v.v.c.c.c.c.c.c.c.c.c.c.c.c.c.c.c.c.c.c.c.c.c.c.c.v.v.n.n.u.s.*.a.~ : : : : ",
"- : : #.$.>.j.s.q.u.n.v.v.c.c.c.c.c.c.c.c.c.c.c.c.c.c.c.c.c.c.c.c.c.c.c.c.c.v.v.n.v.q.i.0.^ : : : : ",
": : : ..%.:.p.0.u.m.v.v.v.c.c.c.c.c.c.c.c.c.u.y.y.y.y.y.y.y.y.y.c.c.c.c.c.c.c.c.v.v.u.i.h.^ : : : : ",
": : : { o.i.i.0.u.m.v.v.c.c.c.c.c.c.u.u.u.u.u.u.u.u.u.u.u.u.u.u.u.y.y.u.u.0.0.c.c.n.c.0.i.W : : : : ",
": : : ` o.o.o.y.n.n.v.c.c.c.c.c.y.y.u.u.u.u.u.u.u.u.u.u.u.u.u.u.u.u.u.u.E   n.q.c.n.v.0.X.W ; - : : ",
": : : J N N N y.n.n.v.c.c.c.y.y.y.u.u.u.u.u.u.u.u.u.u.u.u.u.u.u.u.u.u.u.E     R u.v.v.u.D N 5 : : : ",
"r y t i , 2 k.y.n.v.v.c.c.y.y.y.y.u.u.u.u.u.u.u.u.u.u.u.u.u.u.u.u.u.u.u.E     9.u.c.v.u.: - p * t - ",
"x h O i : 4 s.y.n.v.u.c.y.y.y.y.u.u.u.u.u.u.u.u.0.0.0.u.u.u.u.u.u.u.u.u.u.E R g.c.m.v.u.- : * # H T ",
"U h O F O 6 &.y.n.v.u.c.y.y.y.y.u.u.u.u.u.u.u.0.M M n.q.u.u.u.u.u.u.u.u.u.u.u.u.c.u.v.u.: : : * g T ",
"h g * : : 4 %.q.n.v.u.c.y.q.y.y.u.u.u.u.u.u.u.0.    M R u.u.u.u.u.u.u.u.u.u.u.u.u.u.c.u.: : * * G H ",
"t : : i : 6 &.q.u.n.u.c.y.q.y.y.u.u.u.u.u.u.u.0.    M q.u.u.u.u.u.u.u.u.9.u.u.u.u.c.c.q.: : : : ; - ",
": - : : i 5 @.+.u.n.v.c.q.q.y.y.u.u.u.u.u.u.u.u.E R E u.u.u.u.u.u.u.u.u.u.9.u.u.y.v.c.q.: : : : : : ",
": : : 7 1 + @ < q.m.v.c.q.q.q.y.u.u.u.u.u.u.u.u.u.u.u.u.u.9.u.u.u.u.u.R u.R u.y.y.v.y.6 Q Q : : : : ",
", : : | j.z.z.x.j.y.m.c.c.q.q.y.u.u.u.u.u.u.u.c.m.c.c.u.u.R 9.u.u.u.9.9.R u.u.y.v.u.q.d.:.` : : : D ",
"D : : | &.:.:.>.:.q.m.m.v.q.q.q.q.u.u.u.u.u.c.c.c.c.u.u.u.u.R R 9.9.9.u.u.u.y.y.u.q.a.s.a.~ : : : * ",
"D : : O.%.a.s.:.&.{ q.m.m.v.q.q.q.u.u.u.u.u.u.u.u.u.u.u.u.u.u.u.u.u.u.u.u.u.v.u.q.&.d.d.:.` : : : - ",
": D : #.&.s.a.&.$.| 9 q.m.m.m.v.q.q.q.u.u.u.u.u.u.u.u.u.u.u.u.u.u.u.u.q.q.v.v.q.a.a.=.*.i./ : : : : ",
"D D :  .=.:.a.*.&.' w e.q.y.m.m.n.q.q.q.q.q.q.q.u.u.u.q.q.q.q.q.q.u.u.u.g.q.q.p.a.=.s.;.=./ : : : : ",
": : : { =.:.&.O.+.` w e.1.7.q.y.n.n.n.n.v.q.q.q.q.q.q.q.q.q.y.y.u.u.u.q.y.! N i.s.=.;.:.%.N : : : : ",
"* ; : Q ` ` 2 Q ~ W 0 8.<.2.q y.y.c.n.n.n.n.v.v.u.u.u.y.y.u.y.y.y.q.q.p F F D N 6 Q / ~ 2 7 : : : - ",
"p i : : : 5 >.l.d. .9 8.,.<.8 c b q.q.q.u.u.u.q.q.q.q.q.q.q.q.q.q.q.: : O O 1 h.l.j.{ : , : : : p p ",
"( g & : : 4 %.;.=...9 f.m m X c u : D : H ( ( g : : D : : : D D D : D : : D % l.&.&.{ : : : : * p T ",
"x U H p D 4 :.;.%...9 6.n m . u : : D O p $ r * : : D : : : D : : D O D D D % k.;.:.] : D : : L T U ",
"U T H p - 2 i.*.*...9 6.v ,.a i : : : : ; : : : : : : : : : : : : : D : : : 1 a.&.;.| t i * y T U T ",
"U x x x a 2 i.$.@.] 9 6.c z i i i i i i i i i i i : i i : i i i i : : : i i 4 &.:.p...i i * u T U T ",
"Y Y k x l 6 @.....] 9 6.t : : : i : : : i : i : : : i : i : : : i : ; : i : 5 -.;.s...i i t p T T I ",
"K U ! ! H 7 Q ~ Q 7 , , , , , , , , , , , , , , , , , , D , , , : , D , , , 1 Q Q ~ Q , , ; , P P T "
};
