/* XPM */
static char *_4b62ce5bdf34235e3d9b93d8e8fb7d2PRUYvsBdmD90k0zw[] = {
/* columns rows colors chars-per-pixel */
"50 50 154 2 ",
"   c black",
".  c #361F0C",
"X  c #3D2210",
"o  c #2C1B2D",
"O  c #361F35",
"+  c #272C2D",
"@  c #282E2D",
"#  c #34252E",
"$  c #3E232E",
"%  c #3C2829",
"&  c #2D2B32",
"*  c #342636",
"=  c #3B2435",
"-  c #352936",
";  c #3F2A34",
":  c #372738",
">  c #3D253B",
",  c #3A283C",
"<  c #2F3332",
"1  c #333436",
"2  c #383537",
"3  c #333937",
"4  c #3B3937",
"5  c #363539",
"6  c #3B363B",
"7  c #353A39",
"8  c #3B3C3C",
"9  c #40240F",
"0  c #532F0D",
"q  c #55310D",
"w  c #442711",
"e  c #593310",
"r  c #603814",
"t  c #613B1C",
"y  c #412A2D",
"u  c #422535",
"i  c #412935",
"p  c #482837",
"a  c #40243B",
"s  c #432C3A",
"d  c #4C2A38",
"f  c #473933",
"g  c #47303E",
"h  c #49323C",
"j  c #45393C",
"k  c #4C3B3E",
"l  c #51373E",
"z  c #5E333A",
"x  c #533A3E",
"c  c #6C3524",
"v  c #6E3A24",
"b  c #763B26",
"n  c #7D3F28",
"m  c #612838",
"M  c #3C413E",
"N  c #44403C",
"B  c #4D4039",
"V  c #664326",
"C  c #7A4A24",
"Z  c #7F4B29",
"A  c #7E502B",
"S  c #3D2441",
"D  c #452D43",
"F  c #473043",
"G  c #4C3542",
"H  c #453D44",
"J  c #4D3B43",
"K  c #4B3449",
"L  c #4D3D4A",
"P  c #533B43",
"I  c #553A43",
"U  c #533B49",
"Y  c #733543",
"T  c #7D3942",
"R  c #3E4240",
"E  c #424544",
"W  c #4F4147",
"Q  c #444946",
"!  c #464B48",
"~  c #4A4D4B",
"^  c #554144",
"/  c #56414A",
"(  c #514C4C",
")  c #4D514D",
"_  c #52544F",
"`  c #4D5552",
"'  c #525652",
"]  c #5A5651",
"[  c #555A55",
"{  c #5A5C57",
"}  c #595E59",
"|  c #5E625C",
" . c #61655E",
".. c #5A6864",
"X. c #626661",
"o. c #656A63",
"O. c #6A6D65",
"+. c #696F69",
"@. c #6C7067",
"#. c #6D726A",
"$. c #71756C",
"%. c #75796E",
"&. c #797B6F",
"*. c #717771",
"=. c #757B71",
"-. c #767A71",
";. c #767C71",
":. c #747B74",
">. c #787B72",
",. c #797C72",
"<. c #7A7E74",
"1. c #7A7E76",
"2. c #7C7F75",
"3. c #7A7F78",
"4. c #854926",
"5. c #84452B",
"6. c #864C2A",
"7. c #855022",
"8. c #975734",
"9. c #965E35",
"0. c #9A6238",
"q. c #A76B3A",
"w. c #A9693A",
"e. c #B3733D",
"r. c #944851",
"t. c #A25050",
"y. c #B55758",
"u. c #B17343",
"i. c #BC7A4B",
"p. c #D16D6D",
"a. c #E87D7D",
"s. c #7D8076",
"d. c #7D8176",
"f. c #7E8177",
"g. c #7F8379",
"h. c #7E837A",
"j. c #808276",
"k. c #81857B",
"l. c #82867B",
"z. c #85897E",
"x. c #C68248",
"c. c #C7804E",
"v. c #868B82",
"b. c #898D83",
"n. c #888E85",
"m. c #8B9086",
"M. c #8E948A",
"N. c #91978C",
"B. c #93988E",
"V. c #FA978E",
"C. c #FCB0A9",
"Z. c #FFD1CC",
"A. c #FFF5CF",
"S. c white",
/* pixels */
"L W W W j # : , > S , , , , , , , , , , ! -.-.*.*.-.:.-.~ > * : = , , , , , , , , , : : > > , L j J ",
"x x x x l $ i = a > > > > > a > > > > - B.s.k.k.h.1.>.%.k.H = > u a > > > > a > > > u a a a i I x I ",
"I I x l d u u a a a a a > a a a a > a - m.1.k.,.s.1.X.O.o.j u u i > a a a a a a a a u u a a a P x x ",
"P U J d i > O > > > > S > > > > > > > : @.2.&.,.2.1.o.O.[ U K K h > > > > > > > > > > a S S > > k x ",
"K K F S > > > > : O S O > S > > > > > > [ ;.-.,.s.-.#.o.Q P x x x h = - > > > ; > > > > > > = s D K ",
"> > > = > > > > > > > S , , > > > > 8 Q ) #.h.-.s.$.-.#.! [ 4 x P P ; S D > = = > S > > > > > > > > ",
"> > > S > > > S : : > [ | > > : ~ 1.n.s.R -.#.o.,.1.1.:.R B.n.s.{ N s W :.* i > > S > > > > > > > > ",
"S > > > S S > > > s X.m.$.~ 6 z.v.$.@.#.R o.h.-.1.-.1.1.#.h.#.@.n.o.j k.v.M.6 > S S > > > > = > > > ",
"S S S S > S > > s %.%.;.s.+.) h.+.s.s.2...h.m.t.s.1.$.#.k.:.;.$.#. .k.z.m.j.a.a.S S > > > > > > > > ",
"S > S > > > > > | h.%.s.;.s.:.[ k.s.+.j.` ` ....o.o.X.[ v.#.1.#.$.' k.z.z.a.A.A.y.S > > > > > > > = ",
"> > : > > ; = g 8 #.@.#.%.$.h.[ +.+.#.V 0.9.i.e.> > s G i ~ o.%.) N.h.j.j.y.A.A.y.S = > > > > > > > ",
"> > > > i = g J P j #.%.%.%.1.1.8 V c.i.0.x.i.i.> a i i x I f ; #.z.k.s.k.z.y.p.> > > > > > > > > > ",
"> > > > > ; G P G #.| ;.%.#.%.f V A x.i.u.u.x.i.> > > = g h g h # | #.s.h.M s.N > > > S > S > > > > ",
"= > > > > : J k  .n.h.Q ;.X.f Z 9.A x.x.u.u.y.y.a.a.a.a.y.> > > > o _  .) k.k.@.- S S > > > > > > > ",
"= > > S > : K J k.-.$.O.7 B t w.9.A y.y.y.a.a.C.C.C.C.C.C.a.a.a.C.C.a.< M.k.n.s.} > > = - = > > > > ",
"> > > > > > s  .%.>.z.j.N 9.C y.y.a.C.C.C.A.A.A.C.C.C.C.A.A.A.Z.Z.Z.Z.a.@.&.l.2.$.- h s G = = > > > ",
"> > > > : > ( ! o.%.;.o.6.y.y.A.A.S.A.A.A.C.C.C.C.C.C.C.C.C.A.A.A.S.Z.y.E ,.%.$.) [ k P / s ; > > S ",
"> > > > > >  .z.O.o.#.V y.y.S.S.S.A.A.A.C.C.C.C.C.C.C.C.C.C.C.A.S.S.A.A.V.{ {  .j. .k k / = > > > > ",
"> > = > > > k.#.#.k.) y.a.S.S.S.S.A.C.C.C.C.C.C.C.C.C.C.C.C.C.C.A.S.S.S.A.V.1.$.&.%.( J P s ; > > > ",
"> > > > > O %.$.&.#.y.a.S.S.S.A.C.C.C.C.C.V.V.V.V.V.V.V.V.V.C.C.C.C.A.A.S.S.V.%.$.&.] K = = > > > > ",
"> > > > > o %.&.%.y.a.S.S.S.S.A.C.C.C.V.V.V.V.V.V.V.V.V.V.V.V.V.V.C.C.C.A.S.S.y.$.&._ > = > > > > S ",
"= > > > > E ! E E y.S.S.A.A.C.C.C.V.V.V.V.V.V.V.V.V.V.V.V.V.V.V.V.V.V.C.C.A.S.y.E N Q > s > > > > > ",
"> > a ) o.v.s.h.y.a.S.A.C.C.C.V.V.V.V.V.V.V.V.V.V.V.V.V.V.V.V.V.V.V.V.V.C.C.S.S.p.s.b.s.s.! i > > > ",
"> > > o.$.s.O.o.a.A.A.C.C.V.V.V.V.V.V.V.V.V.V.V.V.V.V.V.V.V.V.V.V.V.V.V.C.C.C.S.p.k.k.%.s.Q > > > > ",
"> > > @.@.1.b.y.C.A.C.C.V.V.V.V.V.V.V.V.V.V.V.V.V.V.V.V.V.V.V.V.V.V.V.V.V.C.C.A.a.y.s.2.s.! > > > > ",
"> = >  .#.s.1.a.C.C.V.V.V.V.V.V.V.V.p.p.p.p.p.p.p.p.p.a.V.V.V.V.V.V.V.V.V.C.C.C.S.a.s.1.s.! > > > > ",
"> > > [ O.$.y.a.A.V.V.t.t.a.a.p.p.a.a.a.a.a.a.a.a.a.a.a.a.a.a.a.V.V.V.V.V.V.C.C.S.a.y.#.@.Q > > > > ",
"> > > _  . .y.C.A.V.y.A.  T a.a.a.a.a.a.a.a.a.a.a.a.a.a.a.a.a.a.p.p.V.V.V.V.V.C.A.A.p.| | N > > > > ",
"> > > j R S c.Z.C.a.Y     T a.a.a.a.a.a.a.a.a.a.a.a.a.a.a.a.a.a.a.p.p.p.V.V.V.C.A.A.p.M R M > > > > ",
"y p = a > 5 a.C.V.a.T     T a.a.a.a.a.a.a.a.a.a.a.a.a.a.a.a.a.a.a.p.p.p.p.V.V.C.C.A.p.> > ; i = ; ; ",
"x h * a > 5 a.C.S.V.a.T T a.a.a.a.a.a.a.a.a.a.t.t.t.a.a.a.a.a.a.a.a.p.p.p.p.V.a.C.A.p.> > = = # h / ",
"I h : a S S a.C.a.V.a.a.a.a.a.a.a.a.a.a.a.a.y.A.m m t.a.a.a.a.a.a.a.p.p.p.p.V.a.C.A.p.> > > a = g L ",
"G g = > > 6 a.V.a.a.a.a.a.a.a.a.a.a.a.a.a.a.Y m     t.a.a.a.a.a.a.a.p.p.y.p.V.a.C.A.y.> > > = : g G ",
"= i > > > 1 y.V.V.a.a.a.a.r.a.a.a.a.a.a.a.a.y.m     t.a.a.a.a.a.a.a.p.p.y.p.V.a.A.a.y.> > > > u > ; ",
"> > > > > 4 y.V.C.p.a.a.r.a.a.a.a.a.a.a.a.a.a.T Y T a.a.a.a.a.a.a.a.p.p.y.y.V.C.A.a._ : > > > > > > ",
"> > > 4 1 @ @ p.C.p.p.a.Y a.Y a.a.a.a.a.r.a.a.a.a.a.a.a.a.a.a.a.a.a.p.y.y.y.V.C.S.y.3 7 E E > > > > ",
"> > > { b.B.B.y.a.C.p.a.a.Y r.r.a.a.a.r.Y a.a.V.V.S.V.a.a.a.a.a.a.a.p.y.y.V.V.S.p.z.k.z.,.` S S > > ",
"S > > | %.,.s.s.y.a.p.p.a.a.a.r.r.r.Y Y a.a.a.a.V.V.V.V.a.a.a.a.a.y.y.y.y.C.S.S.y.%.k.k.t.` 3 S > > ",
"S > > ..@.s.k.&.$.y.a.C.a.a.a.a.a.a.a.a.a.a.a.a.a.a.a.a.a.a.a.a.a.y.y.y.C.S.S.y.O.$.h.k.s.` S - > ; ",
"S > > @.%.k.s.%.@.} y.C.C.y.y.a.a.a.a.a.a.a.a.a.a.a.a.a.a.a.a.y.y.y.C.S.S.S.y.B.d.s.s.$.s.! , S > = ",
"S > > | &.&.j.%.#.` e y.y.a.a.a.a.y.y.y.y.y.y.a.a.a.y.y.y.y.y.y.y.A.S.S.p.y.5 n.j.d.k.;.&.~ > > > > ",
"S > > [ &.s.$.o.X.` e u.7.y.y.a.a.a.p.p.y.y.y.y.y.y.y.y.y.C.A.A.A.A.p.y.P P 8 -.j.%.d.;.#.M S > > > ",
"= > > E ) ' 3 R Q E q e.4.8.w y.y.p.p.p.a.p.p.a.a.a.C.C.A.A.A.A.V.p.p.p s s 8 7 3 M ) ! 1 8 * > > > ",
"g > > > > 5 s.M.v.| 0 e.5.6.X b y.y.y.y.y.y.y.y.y.y.y.a.V.c.y.y.y.* > > * > 1 v.N.b.[ = > > > > s s ",
"P g * > S 6 @.-.&. .q i.Z n X c p : S O g ^ / d S S S S > > S S > S > S > S & N.$.$.' > S S > = g U ",
"k x J > > 2 <.-.$. .0 q.b n . p > > D O s % i O S S a S > > > S S > S * S > & m.1.,.' > > > > G P I ",
"I U k s i 1 j.$.%. .0 q.v 5.d > > > > > > > O D > S O a > > > > > > > > > > - k.%.%. .= > = s P I K ",
"I x x x h 1 s.#.o._ 0 q.c z a a a a a a a a a a a a a a a a a > a > > > a > 7 %.%.k.| a a u s U U U ",
"I x l l l 4 @. . .) q q.u > > > > a > > > > i > > > > > > a > > > a > > > > 5 :.;.h.| > a a a U U I ",
"J / W W J 8 R Q E M , , , , , , , , S , , , , S , , , , , , S , > > > S > , 1 R Q Q Q - : : 6 U L U "
};
