/* XPM */
static char *c63bdbabc1a9422c9183b2532092b41eVoNVQO4YNs7X25Rw[] = {
/* columns rows colors chars-per-pixel */
"50 50 81 1 ",
"  c #371F37",
". c #32232E",
"X c #3E232E",
"o c #3C292A",
"O c #362637",
"+ c #3C2435",
"@ c #3E2835",
"# c #372639",
"$ c #3D253B",
"% c #3A283C",
"& c #412A2D",
"* c #412535",
"= c #412A36",
"- c #40243B",
"; c #432B3C",
": c #453037",
"> c #493336",
", c #47313C",
"< c #4A333D",
"1 c #46383E",
"2 c #4F393D",
"3 c #51373D",
"4 c #533A39",
"5 c #543D3A",
"6 c #503A3D",
"7 c #543A3F",
"8 c #523D3C",
"9 c #553D3E",
"0 c #3D2440",
"q c #3D2540",
"w c #3D2441",
"e c #3E2640",
"r c #3D2442",
"t c #3D2443",
"y c #3F2543",
"u c #402340",
"i c #422841",
"p c #442B42",
"a c #472F40",
"s c #452D43",
"d c #473040",
"f c #473045",
"g c #4A3240",
"h c #4B3343",
"j c #4B3442",
"k c #4D3344",
"l c #4E3345",
"z c #4E3644",
"x c #483A41",
"c c #4F3840",
"v c #4D3A43",
"b c #4E3844",
"n c #4C3E44",
"m c #4E3F47",
"M c #493148",
"N c #4C3549",
"B c #4D3B4A",
"V c #4E3F48",
"C c #513543",
"Z c #523B42",
"A c #543940",
"S c #563B41",
"D c #533C42",
"F c #563C40",
"G c #503A45",
"H c #503846",
"J c #553A44",
"K c #523C46",
"L c #533C46",
"P c #593E43",
"I c #533B49",
"U c #533C48",
"Y c #553D4B",
"T c #50384C",
"R c #563E4C",
"E c #4F4147",
"W c #4F4048",
"Q c #554140",
"! c #544041",
"~ c #554144",
"^ c #56414A",
/* pixels */
"Vmmm1.#%$0%%%%%%%%%%$%%%%$$$$$O#$#%%%%%%%%###@%U1n",
"7FFA6X**--$$$$$$-$-$-$$$$$--%$+-*-$$$$$-$-**--;L42",
"AAA7<**$-- $$----------$$$uu--+**$$$------*----vFA",
"KKc:*+ $$$$$$$$$$$$$$$$+$$$uMTGz<$$$$$$$$$$-uut+<9",
"NNsi$$$$O$#%y$$#$$$$$$$$$$@CC88ZD:+$q$+@$$$$$$+qsz",
"+$$#$$$$$yy$%$$$$$$$$$$$$$;IAZZ8D2;@i$#+$$$$$$$$$$",
"$$$00$$$++$$$$$$$$$$$$$$$OsIAZ8ZED;$q$@$$y$$$$$@$$",
"0$$$00$0$#;;;@$$$$$$$$$$$-;IZZZ8D8=$0$$$yy$$$$$$+$",
"00t$$y$$;,vUGz;+$$$$$$$$$$;RLA8AD8:O$$$$0y$$$$$$$$",
"t$$t$$$@;zZDDZ<-+$$$$$$$$+;YLZ8LDD:+$+$$00$@$$$$$$",
"$0$$$@+;vDD88DIk$$$$$$$$$+,kcD7F22;$y$+$$0$$$$$$$$",
"$$$+=+<GAA9553Ak $$$@$$$$--=c82D2=+0q$+$$$$$$$$$$$",
"$$%$$+vVGAD552Gk $$$$$$$$$$+,<,<,@+$$y#$$%00$0$$$$",
"+$$y$+c2GLZ882Gk*-$$$$$$$$$$$$$$$$0$$$$0t0$$$$$$$$",
"$$$$$$vGKZF892;--$$$$@$$$$$$$$$$$0y$y$$$$$$$$+$$$$",
"+$$y$$d1ZZK82,- -$$$$$$$$$$$$$$$$$$$$$$$$$,;<$@$$$",
"$$$$+$@@ZGZZ;=-ys$$$$$$$$$$$$$$$$$%y$$$$@$mZ^=@$$t",
"@$$$$$%@===*=$$-t$$$$$$$$$$$$$$$$$$$$$$$;ID2^+$$$$",
"$$$$$$$$$*-@-$$$$$$$$$$$$$$$$$$$$y0$$O++;BD2G;@$$$",
"$$$$$$y$$$+$$$$$$$$$$$$$$+$$$$$$$$y$$$$@,^Iv+@$$$$",
"$$$$$$$i$$--$$-+-$$$$$$$$$$$$$$$$$$$$$;@+;;@O-$$$t",
"$$$$$$$$$$$$$$$$$$$$$$0tyo+%i0$+@$$$$$$$$$$$$$$$$$",
"$$$$$$$$$$$$$$$$$$$$$$$%yO%$yyy$$$$$$$$$$$@$$$$$$$",
"$$$$$$$$$+$$$$$$$ty$$@$$$0sfds$yy$$$$$$$$$$$$$$$$$",
"$$$$$$$$$$$$$$$*$$y$$$$$$0sIK>+$yy$$$$$$$@$$$$$$$$",
"$$$$+$$$$-$ ++++@$$%i$$+$+g888D;$$$$$$$$$$$$$$$$$$",
"$$$$$++$ ;,;,,,,:;+$$$$$$$=>868;$$$$$$$@$$$$$$$$$$",
"$$$$$$+$*aIILJAPD<@$$y0$$++*<vI;$$$$$$$$$$$$$$@$$$",
"-*$-$$$sgL7Z624282,@$000$----usuu$$$$$$$$$$$$$$$$$",
"&* -t s mDZZAZZZ88h$0$$$@$$$$$$$$%$@$$$@$@$$$@-+*+",
"P<*-uu;*D8DDK7DD8Dj$$0$$$$$$$$$-@$$%$$$#$%$$$@+.<^",
"A, i  -$D82D278D8nj$$y$$@$$$$$$$$$$$$$$$$$$$$$$+,W",
"z<+$  s$AZF888DDZj<$$$$$+$$$$$$$$t$$$$@$$$t$$$++<c",
"++$$$$0sGIK8KDDKGa+$$y$$#$$$$+$$+$$++@ +$$$+$$$$$@",
"$+$$$$$;;jGAAZZj$$$$$$$$@$$$$$$+$+id<z<<i+$$$+$$$$",
"$$$$$+##+skC6zzs$$+$$$$$$$$$$$$$$$gLZZZGg-$+$+$$$$",
"$$$$%@$$$-@+@+$- $$$+$$$$$$$$$$$ikLA766ARzy+i$$$$$",
"y$$$$$0y$$$@@+$yy+y$+$$$y$$$$$@O;LIA797ZGK$+$$$$$$",
"$$$$%$0t$$$$$$$$$+%yt$$$$0$$$$++;ZAAAILFAL$$$$y$$+",
"00$$$$$0$$$$$$$$$$$y$@@$000$$+$@;CGLAFFKGA;+$$$$$$",
"yy$$$$$y$$$$$$$$$$00$$@$$y%$$O++@><GKZKG<<@++$$$$$",
"$$$$$$@+$$$$$$$$$+0$++@@0$$$$$$$$=:2KKKz>*O++$$y$$",
"+%$$$$$$$$$$$$$$$$0$dvz%00$y$$$$$+@;;;;;++@+$$$$$=",
";+$;$$$$$$$$$$$$$ 0+vzD:$$q$$$$$$+$+++ #$+@$$$$$;;",
"~;++0$0$$$$$$$$$$$y$z~~;$$$0$$yyy000$t 0tt$$$$$+;^",
"6mc;0-00$$$$$$$$$$y ;o*+0$$$$$$yy#0#$tt0$+t$%y%cIG",
"vKz;*  $$$$$$$$$@$$$$$$$$$$$$$$$$$$$$$$$$$-$$+;kGG",
"AFAA<*-+------*----$-$---$$$--$$0$$$--$----*-*;IJA",
"PFZ63X*+$$$$-$$$$;$$$$$$$$$$;$$$-$$$$-$-$$---*;ILI",
"n^Wnx.+#%$%%%%i%#%%y%%%%y%%%%$$%$$%#%%%%%y%%%#%BBB"
};
