/* XPM */
static char *dd19096b56e34061d6ea89e05c1e48c7GfJJ7ZwnwNPNDoqZ[] = {
/* columns rows colors chars-per-pixel */
"50 50 50 1 ",
"  c black",
". c #371F37",
"X c #32232E",
"o c #3E232E",
"O c #3C2829",
"+ c #362637",
"@ c #3B2435",
"# c #3F2835",
"$ c #372639",
"% c #3D253B",
"& c #39283C",
"* c #412A2D",
"= c #412535",
"- c #412A36",
"; c #40243B",
": c #432C3B",
"> c #453037",
", c #47303D",
"< c #4A333D",
"1 c #46383E",
"2 c #4F393D",
"3 c #51373D",
"4 c #533B3E",
"5 c #612838",
"6 c #3D2441",
"7 c #442B41",
"8 c #473043",
"9 c #4C3443",
"0 c #4D3B43",
"q c #4B3449",
"w c #4D3C49",
"e c #513543",
"r c #523B43",
"t c #593E43",
"y c #533C49",
"u c #733543",
"i c #7D3942",
"p c #4F4147",
"a c #554142",
"s c #56414A",
"d c #944851",
"f c #A25050",
"g c #B55758",
"h c #D16D6D",
"j c #E87D7D",
"k c #FA978E",
"l c #FCB0A9",
"z c #FFD1CC",
"x c #FFF5CF",
"c c white",
/* pixels */
"wprw0X&&%&&%6&&&&&&&&&&&&$6$$%$$@&&&&&&&&&&&%%%010",
"r4443o=#;%%%%%%;%;;%;%%;%;;;.;=;=%%%;%;%%%==;;:y43",
"4443<==@%;%%%%;;;;;;;;;;;7.;7;@;=;;%;;;;;;==.;:e44",
"yye>=@.%%%%%%%%%%%%%%%%%%%678yee8%%%%%%%%%%%76%%24",
"qq77%%%%%$.66&%#%%%%%%%%%#=9er34r>#@6%##%%%%%%@67q",
"%%%@@%%6%66%%6%%&%%%%%%%%%7yy344r2:&6%@#%%%%%%%%%%",
"%%66%%%7@@%@$%%%%%%%%#%%%@8y04r4ra:%6%#%%6%%%%:%%%",
"66.%66%%$%::::;%%%%%%%%%%%:y34p4r4:@6%%%66%%%%@%%%",
"6666%7%%:,jjry-+%%#%%%%%%%:ytrr4ra>o@%%%66%%%%%%%%",
"6%6%%%@%7gxxjr,;@%%%%%%%%@7yrr4rra>@6%%%66%%%%%%%%",
"%6@%#$@,ygxxg4y9@%%%%%%%%@794r2a22:%$.%$%6%%%%%%%%",
"%%%$#@,yrrhg43e9.%%%%%%%%;:-0r24<-#%66%#%%%%%%%%%%",
"%%%%%#0rr34442r9@%@;%%%%%%#@,,,<:@@66%%%%6%76%%%%%",
"#%%6%+02rr0442r8;%%%%gjjjjgg%%%%@%6%%%%66%6%%%%%%#",
"#%%%%@qrrr4442>jlljjjlllllljjggg..%%6%%%%%%+#$%%%%",
"$%%6%%8<yrr42<jzzzzxxxllllxxxlllkgg%6%%%%%,-8@#%%%",
"%%%%+#%-yrrr,=gzcxxxlllllllllxxxcxxgg%%#%%r0s-&%%%",
"%%%6%%%%#--=#kxxccxlllllllllllxxxcccgg%;:yr2yo#%%%",
"%%%%%%%%#@%#kxcccxllllllllllllllxccccjg+:yr0y:#%%6",
"%%@%%%%%@@%kccxxllllkkkkkkkkklllllxcccjg:sy0@#%%%%",
"%%%%%%%676gccxlllkkkkkkkkkkkkkklllxccccjg:-:+%%%%%",
"%%%%%%%%%%gcxllkkkkkkkkkkkkkkkkkklllxxccg%%%%%%%%%",
"%#%%%%%%@hccllkkkkkkkkkkkkkkkkkkkkklllxcjg%%%%%%%%",
"%%%%%%%%%hclllkkkkkkkkkkkkkkkkkkkkkkkllxxj%%%#%%%%",
"%%%%%%%%gjxllkkkkkkkkkkkkkkkkkkkkkkkkkllxlg%%%%%%%",
"%%%%#@%%jclllkkkkkkkkkjhhhhhhhhhkkkkkkkkllj%%%%%%%",
"%%%%%%@gjcllkkkkkkjjjjjjjjjjjjjjjhhjjffkkxjg#%%%%%",
"%%%%%%@hxxlkkkkkhhjjjjjjjjjjjjjjjjjji xgkxlg%%%%%%",
";@;;%%;hxxlkkkhhhjjjjjjjjjjjjjjjjjjji  ujllj%%%%%%",
"*==;6.7hxllkkhhhhjjjjjjjjjjjjjjjjjjji  ijklj%##@##",
"r<.;;67hxljkhhhhjjjjjjjjfffjjjjjjjjjjiijkclj#%#X9s",
"e<.7..7hxljkhhhhjjjjjjjf55xgjjjjjjjjjjjjkjlj%%%@80",
"9,@@%.7gxljkhghhjjjjjjjf  5ujjjjjjjjjjjjjjkj%%@@89",
"=#%%%%6gjxjkhghhjjjjjjjf  5gjjjjjjjjdjjjjkkg%%%%#%",
"%%%%%%@:jxlkgghhjjjjjjjjiuijjjjjjjjjjdjjhlkg;%%%%%",
"%%%%6%@%gclkggghjjjjjjjjjjjjjdjjjjjujujhhlh@%$%%%%",
"6%6%&$$%.hckkgghjjjjjjjkckkjjudjjjddujjhljg%:%%%%%",
"6%%%%%666gcclggggjjjjjkkkkjjjjuudddjjjhhjg6.7@6%%%",
"%%%#%%66%%gcclgggjjjjjjjjjjjjjjjjjjjjjljgy:@6%%%##",
"66%%#%%6%%@gccclgggjjjjjjjjjjjjjjjjggllgrr:@@$%%%%",
"66%%%%%%%%%%ghccxgggggggjjjggggggjjjjggy,,#++;%%%%",
"%6%%%%%%%%%%%%ghxxxxlggggggggghhjjjggyy9>-o@.;%6%%",
"@$%@%%%%%%%%%%%hhkxxxxlljjjhhjhhhgg:-:::-@##%%%@%%",
"::%:%%%%%%%%%%%%%gggjjjggggggggggg@#@+++#+@%%6%%::",
"r>$:.76.%%%%%%%%%%6%9as7%%6%6%%666%$6%66%66%6%;@:s",
"3r9%6766%%%%%%%%%%6@-O*#%%6%%%66%6.666.66%66%6#qrr",
"yt0:=+%%%%%%%%%%%%%%&%%%%%%#%%%%%%6%%%%%%%;@@#:yyr",
"e34r>=;@;;;;;=;;;%;;;;;;%;;%;;;;;;%%;;;;%@;;;==yey",
"t4343*==%;;%;%%;%;%;%;%:&%%%;%%;;%%%%%%;%;;;;;:tye",
"0spw1X&&&$&&&&&&&&&&&&6%&&&&&&&&6%&&&&&&&&&&&&&www"
};
