/* XPM */
static char *_e7f9cf9734b4a12ed4d5771507862c1xfgp6u8S0EsAjZRA[] = {
/* columns rows colors chars-per-pixel */
"50 50 91 1 ",
"  c black",
". c #371F37",
"X c #32232E",
"o c #3E232E",
"O c #3C2829",
"+ c #362637",
"@ c #3B2435",
"# c #3E2835",
"$ c #372639",
"% c #3D253B",
"& c #39283C",
"* c #412A2D",
"= c #412535",
"- c #422B35",
"; c #40243B",
": c #432B3B",
"> c #453037",
", c #47313D",
"< c #4A333D",
"1 c #46383E",
"2 c #4F393D",
"3 c #51373D",
"4 c #533B3D",
"5 c #553A3F",
"6 c #523D3C",
"7 c #523C3E",
"8 c #563C3D",
"9 c #612838",
"0 c #3D2440",
"q c #3D2540",
"w c #3D2441",
"e c #3E2540",
"r c #3E2441",
"t c #3E2640",
"y c #3D2443",
"u c #3F2543",
"i c #422841",
"p c #452D43",
"a c #473040",
"s c #473045",
"d c #4A3240",
"f c #4A3442",
"g c #4C3441",
"h c #493046",
"j c #4D3344",
"k c #4E3345",
"l c #4E3644",
"z c #4E3646",
"x c #483A41",
"c c #4F3840",
"v c #4E3844",
"b c #4D3A44",
"n c #4C3E44",
"m c #4E3F47",
"M c #4C3549",
"N c #4D3B4A",
"B c #4E3F48",
"V c #513543",
"C c #533943",
"Z c #523B43",
"A c #543940",
"S c #563B41",
"D c #523C40",
"F c #563C40",
"G c #523944",
"H c #523B46",
"J c #553A44",
"K c #523C46",
"L c #593E43",
"P c #533B49",
"I c #533C48",
"U c #533C49",
"Y c #50384C",
"T c #563E4C",
"R c #733543",
"E c #7D3942",
"W c #4F4147",
"Q c #554141",
"! c #554144",
"~ c #56414A",
"^ c #A25050",
"/ c #B55758",
"( c #CE6C58",
") c #D16D6D",
"_ c #E87D7D",
"` c #F59A72",
"' c #FA978E",
"] c #FCB0A9",
"[ c #FFD1CC",
"{ c #FFF5CF",
"} c white",
/* pixels */
"BmWmxX$$%w&&&&%&&&0&&&&&%$.w%%@$@&&&&&&&&&$$%$&B1b",
"5FFA3o-=;%%%%%%;%%%%:%%%%%;;%%@%=%%%;%%%;%=-;;:A75",
"AAA3<=;@;;%%;;%;;;;;;;;;;i+w:;@==%;%;;;;;;==;;;G54",
"KKc>=@.0%%%%%%%%%%%%%%%@%%iihYzGd%%%%%%%%%%;ww%:25",
"MMpi%%%%%+%w0%$%%%%%%%%%%@%fV555D>@%w%-@%%%%%%%%pj",
"%%%@%;%%%%%$&%%%$%%%%%%%%;:UAH72Db:%0%%@%0%%%%@%%%",
"%%0%%%%%%$%@%%%%;%%%%%%%%%:TcDA6DQ:%0%%-0i%%%%%%%%",
"0$%%000%@%::::%%%%%%%%%%%%pUHD6DD2>%0%%%0y%%%%%%%%",
"y0y0%%%%:__HKz:@=%%%%%%%%@pTFF76DQ>$%%%%00%%%%%%%%",
"0%0%%%%%/{{_DA,%%%%%@%%%%%:TKA2A2Q>@%%@%i%%%%%%%%%",
"%%%%@-@</{{/65Ud@%%%%%%%%@,fKA2Q22:%y+%%%y%%%%%%%%",
"%%%%%@1HA)/663Hj@%%%%%%%%;;-2K2Q<>@0y@%@%%%%%%%%%%",
"%%%%%@bbHA6867Hj.%%%%%%%%;%$:a,2>%@%uu%%%0%0%0%%%@",
"@%%u%$c2HHDD62zd;%%%/____//%@&%%%0%%%%%0000%%%%%%%",
"@%%0%%bKHA2672_]]___]]]]]]__///%%%i%%&%%%%%@%+%%%%",
"%%%%%%a1AK6D2_[[[[{{{]]]]{{{]]]_//%0%%%%%@,:1#%%%%",
"#%%%+%%-HDKA,/[}{{{]]]]]]]]]{{{}{{//%%%%%%Fb~:#%%%",
"%%%%%%%%-=-:'{{}}{]]]]]]]]]]]{{{}}}//%%@,bD2!@@%%0",
"%%%%%%%%@@@'{}}}{]]]]]]]]]]]]]]{}}}}_/%@:IKbP:@%%0",
"%%%%%%%%%%'}}{{]]]]''''''''']]]]]{}}}_/@<I~b@-%%%%",
"%%%%%%%%%/}}{]]]'''''''''''''']]]{}}}}_/@:%;@%%%%0",
"%%%%%%%%%/}{]]'''''''''''''''''']]]{{}}/%%%%%%%%%%",
"%%%%%%%%)}}]]''''''''''''''''''''']]((}_/w.%%%%%%%",
"%%@%%%%%)}]]]''''''''''''''''''''''^99^(`.w%%@%%%%",
"%%%%@%%/_{]]'''''```''''''''''''''(9999^]/%%%%%%%%",
"%%%%%%%_}]]]'''''^^^((())))))))'''999999]_%%%%%%%%",
"%%%%%%/_}]]'''''(EEEEE^^________)999EE''{_/%%%%%%%",
"%:%%%@){{]'''''))^EE9999^^___^_^_99^^^/'{]/#%%%%%%",
"%;%;%%){{]''')))__^EE999999^_9_999    R^]]_%%%%%%%",
"*=@;%.){]]''))))____^^^99  9_9_999    ^_']_%%@-@##",
"A<@;i.){]_'))))____^EEEEE  999_]99  ^^_'''_%%@@XxU",
"A<.;0.){]_'))))_____^      999_[]9999__'''_%%%:@,U",
"z<@%%+/{]_')/))__]]]^99  9R99__[[9999E^__'_%%%@@<d",
"@@%;%%/_{_')/))_']]]__^^ 999^___]]99^EE_''/%%@%%%#",
"@%%%%%%_{]'//))_']]]'__E^99^^___]]9^_^()]'/%%%%%%%",
"%%%%%%%/}]'///)__''''__^^9^^_^^999^^__))])%%%@%%%%",
"%%@%%$$%)}''//)______^^^^(^^_99EE^)))_)]_/i.;%%%%%",
"0%%%%%&u/}}]////_____^^^(((9999999^^^))]/J:+:%%%%%",
"00%%%%%u%/}}]///___________^^________]]/JJ:+%$0%@#",
"00%%%%%u%%/}}}]///_________^99999999]]/KHV:%%%%%%%",
"0%%%%%%%%%%/)}}{///////___///^^999]]//AP2:#@@%%0%%",
"y%%%%%%%%%%%%/){{{{]/////////))_]]//KKUP,-o@+%%%%%",
"+&%%%%%%%%%%%%))'}}}{]]___))_)))//#:::%:#@@#%%%%%%",
":;:%%%%%%%%%%%%%%//___//////0%%&&$%@@@.@@+=%%%%%::",
"F,@%00%%%%%%%%%@%%0%xQ!a%%%0%0%0%00%0%yw%0%%0%%%:~",
"2Dc&%i00%%%%%%%%%%0%:O#@0%%%%%0i0$$0%00+000%0%%fIK",
"HHc,=@%%%%%%%%%%%%%%%%%%%%%%%%%%%;%%%%%%%%;%=@:bJV",
"A7AD-=;@;;;;;;;;;;;;;;;;;;;%;;;;;i.%;;%;%%;;;=:UUH",
"LA552o=@%%;%;%%;;%%%%;%;%;%&:%%;;%%%%%;%%;;;;;:PPJ",
"x~WmxX$%&&&&&&&&&&%&&&&&&&&0&&&&0%&&&&&&&&&&%$&WNN"
};
