/* XPM */
static char *fa5ac23eeafd422a9d74c9ae04d84fb6Mlc7RX4XXuD4F0xx[] = {
/* columns rows colors chars-per-pixel */
"50 50 88 1 ",
"  c black",
". c #371F37",
"X c #32232E",
"o c #3E232E",
"O c #3C2829",
"+ c #362637",
"@ c #3B2435",
"# c #3F2835",
"$ c #372639",
"% c #3D253B",
"& c #39283C",
"* c #412A2D",
"= c #412535",
"- c #412A36",
"; c #40243B",
": c #432B3B",
"> c #453037",
", c #47303D",
"< c #4A333D",
"1 c #46383E",
"2 c #4F393D",
"3 c #51373D",
"4 c #533C3E",
"5 c #563C3D",
"6 c #553D3E",
"7 c #612838",
"8 c #3D2440",
"9 c #3D2540",
"0 c #3D2441",
"q c #3E2640",
"w c #3D2443",
"e c #3E2442",
"r c #422841",
"t c #442A40",
"y c #472F40",
"u c #452D43",
"i c #473040",
"p c #473045",
"a c #4B3343",
"s c #4C3441",
"d c #4C3541",
"f c #493046",
"g c #4D3344",
"h c #4E3345",
"j c #4E3646",
"k c #483A41",
"l c #4F3840",
"z c #4B3D40",
"x c #4D3A44",
"c c #4C3E44",
"v c #4E3F47",
"b c #493148",
"n c #4C3549",
"m c #4D3B4A",
"M c #4E3F48",
"N c #513543",
"B c #533B41",
"V c #543940",
"C c #503C42",
"Z c #563C40",
"A c #503846",
"S c #523B46",
"D c #553A44",
"F c #523C46",
"G c #533C46",
"H c #593E43",
"J c #533B49",
"K c #533C49",
"L c #553D4B",
"P c #50384C",
"I c #563E4C",
"U c #733543",
"Y c #7D3942",
"T c #4F4147",
"R c #554141",
"E c #554144",
"W c #56414A",
"Q c #A25050",
"! c #B55758",
"~ c #CE6C58",
"^ c #D16D6D",
"/ c #E87D7D",
"( c #F59A72",
") c #FA978E",
"_ c #FCB0A9",
"` c #FFD1CC",
"' c #FFF5CF",
"] c white",
/* pixels */
"Mvvv1X&&%$e%&&%&&&&&&&&&&$.q%$$$$%&%&&&&%&&&$#%M1k",
"4ZZ43o==%;%%%%%%%%%;;%%;%;;;%%=%=;%%%%%;%%==;;:D53",
"VVV3<==@%;%%;;;;;;;;;;;;%r;rt;@==%;;;;;%;;==;;;NZ5",
"SGl,=%+%%%%$%%%%%%%%%%%%%%.rfPNN<%%%%%%%%%%%ee%:<5",
"nnur%%%%%+eeq%%%%%%%%%%%%@=sNB444<#$e%@#%%#%%%%;ub",
"$%%.%%%%%%%%%%%$$%%%%%%%%%uKBBB4CC:%r$%#%q%%%%$%%%",
"%%e%%%%%@$%$$%%%:%%%%%%%%@yI4C24ZC:%e$#%%e%%%%;%%%",
"e%%%ee%%%%::::%@%%%%%%%%%%:PBC4CCV-.r%%%ee%%$%%%%%",
"ee%e%r%%:,SSGx:@#%%%%%%%%%uIZ3ZvCR>@%%%//q%%%%%%%%",
"e%8%$%$%,sBB5xf:%%%%%%#%%@:ISB44xZ>#%$/''!;%%%%%%%",
"e%%%#%@,BCC454Gf@%%%%%%%%@ys2B2C22:%%.!''!%%%%%%%%",
"%%%$#@,GSZ5553Vh@%%%%%%%%;;-lB4R<-%%e%%!^%%%%%%%%%",
"%%%%%@vlBB4542Ch.%%%%%%%%%%@,,,,r@.%w%%%%e%q%%%%%%",
"#%%e%@l2SSC442Nf;%%%%%%!!////!%%.wq%%%%re%e%%;%%%#",
"#%%%%$hxSBl452:;;%%!!!//______///__/%%%%%%#+$$%%%%",
"@%%e%%idBBC42,-$!!/___'''____'''````(w%%%%::s@#%%%",
"%%%%+#%-BSBB:-!!'']'''_________''']`!$%%%%3CW-#%%%",
"%%%%%%%%#--=:!!]]]'''___________']]'')#%:mC3L@%%q%",
"%%%%%%%%%##%!/]]]]'______________']]]')@:mGCS:#%%%",
"%%%%%%%%%%%!/]]]'_____)))))))))____'']]):ISv@#%%%%",
"%%%%%%%%%%!/]]]]'___))))))))))))))___']]!:-:@%#%%e",
"%%%%%%%%%%!]]''___))))))))))))))))))__']!;%%%$%%%%",
"%#%%%%%%%!/]~~__)))))))))))))))))))))__]]^%%%%%%%%",
"%%%%%%%%%/~Q77Q))))))))))))))))))))))___]^%%%%%%%%",
"%%%%%%%%!_Q7777~))))))))))))))((()))))__'/!%%#%%%#",
"%%%%#%%%/_777777)))^^^^^^^^~~~QQQ)))))___]/%%%%%%%",
"%%%%%%@!/'))YY777^////////QQYYYYY~)))))__]/!%%%%%%",
"%%%%%%$!_')!QQQ77/Q/Q///QQ7777YYQ^^)))))_''^%%%%%%",
"%;.;%.;/__QU    777/7/Q777777YYQ//^^^)))_''^%%%%%%",
"*==r;.t/_)/Q    777/7/7  77QQQ////^^^^))__'^%%#@##",
"V<o;q.t/)))/QQ  77_/777  YYYYYQ////^^^^)/_'^%#@@dK",
"V<.;e;t/)))//7777_`/777      Q/////^^^^)/_'^%$#@,M",
"h:%%%.r/)//QY7777``//77U7  77Q___//^^!^)/_'!%%@@ia",
"##%%%%r!))/YYQ77__///Q777 QQ//___)/^^!^)/'/!%%#%#%",
"#%%%%%%!)_^~Q/Q7__///QQ77QY//)___)/^^!!)_'/%;$%%%%",
"%%%%%$@%^_^^//QQ777QQ/QQ7QQ//))))//^!!!)_]!$;%%%%%",
"%%%#%%$%!/_^/^^^QYY77/QQ~QQQQ//////^!!))]^;$:%%%%%",
"q%%%$%%q%!_^^QQQ7777777~~~QQQ/////!!!!_]]!t$q$%%%%",
"we$%%%ee%%!__////////QQ///////////!!!_]]!D;@%%%%%#",
"e%%%%%%e%%%!__77777777Q/////////!!!_]]]!BN:%%%%%%#",
"ee%%%#%%%%%%!!__777QQ!!!///!!!!!!!']]^!S<<#@+%%r%%",
"8q%%%%%#%%%%%%!!__/^^!!!!!!!!!_''''^!SSx:-@@@$%%%%",
"@$%%%%%%%%%%%%%%!!^^^/^^///__']]])^^::::-@##%%%+%@",
"::#q%%%%%%%%%%%%%.q$hg!!!!!!///!!@%$@@.+#@@%%%%%::",
"l:@#%e%%%%%%%%%%%%q%<RZ:%%e%%q%q$ee+e%eeeq%%e%%@:L",
"CCl%q;ee%%#%%%%%%%w$:O-#%%e%%%w%r%8eee%.$%q%e%%fSB",
"DKx:=.%.%%%%%%%%%%%%%%%%%%%%%%%%%%+%%%%%%%;%%=:PSS",
"B44B<=;%;;;;;;;;;;;;;%;%;;%%;;%:;;%.;;;%;%;;;=-VKD",
"HV333o==%%%%%;%;%;%;%%;:%%%%%%%%;;%%%%%;%%%;;;:DDK",
"kWTTkX&&&&%&&&&&&&&&&&q%&&&&q&&&%e&&&&w%&&&&&&&Mmm"
};
