/* XPM */
static char *_6f20bdd929a446fd1dfb8e7018fe32ey65AAghV3X0kj3pX[] = {
/* columns rows colors chars-per-pixel */
"50 50 85 1 ",
"  c black",
". c #371F37",
"X c #32232E",
"o c #3E232E",
"O c #3C2829",
"+ c #362637",
"@ c #3B2435",
"# c #3F2835",
"$ c #372639",
"% c #3D253B",
"& c #39283C",
"* c #412A2D",
"= c #412535",
"- c #422B35",
"; c #40243B",
": c #432C3B",
"> c #453037",
", c #47303D",
"< c #4A333D",
"1 c #46383E",
"2 c #4F393D",
"3 c #51373D",
"4 c #533C3E",
"5 c #563C3D",
"6 c #553D3E",
"7 c #612838",
"8 c #3D2440",
"9 c #3D2540",
"0 c #3D2441",
"q c #3E2441",
"w c #3E2640",
"e c #3D2443",
"r c #3E2442",
"t c #3E2542",
"y c #422841",
"u c #472F40",
"i c #452D43",
"p c #473040",
"a c #473045",
"s c #4A3240",
"d c #4B3343",
"f c #4C3441",
"g c #4C3541",
"h c #493046",
"j c #4D3344",
"k c #4E3644",
"l c #4E3646",
"z c #483A41",
"x c #4F3840",
"c c #4D3A44",
"v c #4C3E44",
"b c #4E3F47",
"n c #493148",
"m c #4C3549",
"M c #4D3B4A",
"N c #4E3F48",
"B c #513A42",
"V c #543940",
"C c #533D40",
"Z c #563C40",
"A c #503846",
"S c #523B46",
"D c #553A44",
"F c #523C46",
"G c #533C46",
"H c #533B49",
"J c #533C48",
"K c #553D4B",
"L c #50384C",
"P c #733543",
"I c #7D3942",
"U c #4F4147",
"Y c #554141",
"T c #554144",
"R c #56414A",
"E c #944851",
"W c #A25050",
"Q c #B55758",
"! c #D16D6D",
"~ c #E87D7D",
"^ c #FA978E",
"/ c #FCB0A9",
"( c #FFD1CC",
") c #FFF5CF",
"_ c white",
/* pixels */
"Nbbb1X&&%%r&&&&&&&&&&&&&&&.%%%+$@&&&&&&&&&&&%%&N1z",
"4ZZ43o==%;%%%%%;;%%;%%;%;%;%%;@;;%%%%;;%%;==;;-D53",
"VVV3<==@%%%%%;;%;;;;;;;;%yry;;===@;%;;;;;;==;;%S64",
"SGx,=%+%%%%%%%%%%%%%%%%%%%.ynLll<%%%%%%%@%%%ey%#<4",
"mmiy%%%%$$+rqq%%%%%%%%%%%##g3B36C,@%q%@#%%%%%%%%in",
"$%%.%%%%%%%%%%&%&%%%%%%%%%iJSV44Cx:%y%@@%q%%%@%%#;",
"%%r%%%%%%%%%%%%%;%%%%%%%%@,KxxCCBC-%q%%%ww%%%%%%%%",
"r%%%rr%%%#&::#%@%@%%#%%%%%iJBCC4C6:$e%$%we%%%%%%%%",
"rr%r%q%%:,cJGl:@:%%%%%@%%%iKH6ZCCY>+%%~~q%%%%%%%%%",
"r%8%%%%%,gBC4C<%@%%%%%%%%@:KVB2CxY>@%~))Qq%%%%%%%%",
"r%%%@#@,cCZ434Hs%@%%%%%%%@ijxB4C22:%qQ))Q9%%%%%%%%",
"%%%$#@,SBC6663Sj%%%%%%%%%%==xC2C2-@%q$Q!&9%%%%%%%%",
"%%%%%#cBSBC442Sj+%%%%%%%%@%%,s,<:@%%%%%&%%qq%%%%%%",
"#@%q%+c2SSC442Ss%%%%%%QQ~~~~Q%@%%q%%q%rqr%%%%%%%%@",
"@%qq%$lSSZC442:%;%QQQ~~//////~~~//~%%%%%%%%+%%%%%#",
"@%%%%%s<BVB42<-QQ~///)))////)))((((~%q%%%#,:g#%%%q",
"#%%%$%@:BSBC,QQ))_)))/////////)))_(Q%@%%%@VGR:-%%%",
"%%%%%%%@=--;QQ___)))///////////)__))^%@%:NG2K@@@%e",
"%%%%%%%%###Q~____)//////////////)___)^@@:NCcS::%%%",
"%%%%@%%%%%Q~___)/////^^^^^^^^^////))__^#:KKc@@%%%%",
"%%%%%%%q%Q~____)///^^^^^^^^^^^^^^///)__Q#:::$#@%qq",
"%%%%%%%%%Q__))///^^^^^^^^^^^^^^^^^^//)_Q%@%%%@%%%#",
"%%%%%%%%Q~_)///^^^^^^^^^^^^^^^^^^^^^//__!%%%%%%%%%",
"%%%#%%@%~))//^^^^^^^^^^^^^^^^^^^^^^^///_!%%%%%%%%%",
"%%%#%%%Q/)//^^^^^^^^^^^^^^^^^^^^^^^^^//)~Q%%%%%%%%",
"%%%%%%%~//^^^^^^^^!!!!!!!!!~^^^^^^^^^///_~%%%%%%%%",
"%%%%%%Q~)^^WW~~!!~~~~~~~~~~~~~~~^^^^^^//_~Q%#%%%%%",
"%%%%%%Q/)^Q) I~~~~~~~~~~~~~~~~~~!!^^^^^/))!%%%%%%%",
"%%%;@%~//~P  I~~~~~~~~~~~~~~~~~~~!!!^^^/))!@%%%@%%",
"*==;e.~/^~I  I~~~~~~~~~~~~~~~~~~~!!!!^^//)!%%@:@##",
"3<o;rr~/_^~II~~~~~~~~~~WWW~~~~~~~~!!!!^~/)!%%#@+gJ",
"V<.;r.~/~^~~~~~~~~~~~~Q)77W~~~~~~~!!!!^~/)!%%@%@,U",
"gu@%%+~^~~~~~~~~~~~~~~P7  W~~~~~~~!!Q!^~/)Q%%%@@hs",
"-@%%%%Q^^~~~~E~~~~~~~~Q7  W~~~~~~~!!Q!^~)~Q%%%&%@#",
";@%%%%Q^/!~~E~~~~~~~~~~IPI~~~~~~~~!!QQ^/)~@%%%@@%%",
"%%%%;$$!/!!~P~P~~~~~E~~~~~~~~~~~~~!QQQ^/_Q;%;%%%%%",
"%q&@%%%Q~/!~~PEE~~~EP~~^^_^~~~~~~~!QQ^^_!d;$y%%%%%",
"q%%%%&qwQ~!!~~~EEEPP~~~~^^^^~~~~~QQQQ/__QJ:%%%%%%;",
"%%%%@%werQ~/~~~~~~~~~~~~~~~~~~~~~QQQ/__QSD;@%%q&@@",
"qq%%%%%w%%Q//QQ~~~~~~~~~~~~~~~~QQQ/___QGBB:%%%%@%%",
"qq%%%%%%%%%QQ~~~~QQQQQQ~~~QQQQQQQ)__!QCS2:##+%%q%%",
"9q%%%%%@%%%%%QQ~~~!!QQQQQQQQQ/))))!QGGSJ<-o@+%q%%%",
"@$%#%%%%%%%%%%%QQ!!!~!!~~~//))))^!!:::;:#@@@%%$%#$",
":-%%%%%%%%%%%%@%QQQQQQQQQQQ~~~QQQ$@$@@.$@@#%%%%%:<",
"G>%%r%r%%%%%%%%%%%q%gTR:%w%%q%%&%q%$rr%+%r%%q%%@:K",
"2Cx&%yr%%%%%@;%%%%e$:O*@%%%w%%qqq%qq.rrr$%r%%q$dSB",
"JJx:=@%%%%%%%%%%%%%%@%%%%%%%%%%%%%.&;%%%%%;;%=:HLS",
"S43Z:=;%;;;;;;;;;;;;;;;%;;;%;;;;;;%%r%;;;%;;;=-HDD",
"ZZ442o#@%@%$%%%;;%%%;%;%%%%%;:%%;%%%%%%;%%%;;=-KHD",
"xRUUzX&%&%q&&&&&&&&q&&&&q&&&&&&&q%&&&&&&&q&&&&&NMM"
};
