/* XPM */
static char *_12562aeeafe433d8dac33b85c522126DQRZYTyVelA7lkQ5[] = {
/* columns rows colors chars-per-pixel */
"50 50 50 1 ",
"  c black",
". c #371F37",
"X c #32232E",
"o c #3E232E",
"O c #3C2829",
"+ c #362637",
"@ c #3B2435",
"# c #3F2835",
"$ c #372639",
"% c #3D253B",
"& c #39283C",
"* c #412A2D",
"= c #412535",
"- c #412A36",
"; c #40243B",
": c #432C3B",
"> c #453037",
", c #47303D",
"< c #4A333D",
"1 c #46383E",
"2 c #4F393D",
"3 c #51373D",
"4 c #533C3E",
"5 c #612838",
"6 c #3D2441",
"7 c #452C43",
"8 c #473043",
"9 c #4C3443",
"0 c #4D3B43",
"q c #4B3449",
"w c #4D3C49",
"e c #513543",
"r c #523B43",
"t c #593E43",
"y c #533C49",
"u c #733543",
"i c #7D3942",
"p c #4F4147",
"a c #554142",
"s c #56414A",
"d c #944851",
"f c #A25050",
"g c #B55758",
"h c #D16D6D",
"j c #E87D7D",
"k c #FA978E",
"l c #FCB0A9",
"z c #FFD1CC",
"x c #FFF5CF",
"c c white",
/* pixels */
"wpr00X$&%%&&6&&&&&&&%$&&&$.6%%$%%$%&&&&&&&&&%%%w12",
"r4t42o=@%;%%%%%;;%;%%:%;;6;;%.@;=%%%%%;%%;==;;-r44",
"4443<==%%;%%%;%;;;;;;;;;%7..7;@-=%;%;;;;;;==;6:r44",
"yye>=%.%%%%%%%%%%%%%%%%%%%777yee<%%%%%%%%%%%66%%24",
"qq77%%@%$$.66%%%%%%%%%%%%%@9er444<@@6%#@%%%%%%@;7q",
"%%%.%%%%%%6%%%&@&%%%%%%%%%:yrr2402:&6%&#%%%%%%%%%%",
"%%6%%%%%@%%%%%%%%%%%%%%%%@9y20r4ra:%%%#%66%%%%%%%%",
"6%%%66%6@&:::%%%%%%%%@%%%;:yrr44r4>%6%%%6jk%%%@%%%",
"6666%%%&:,rrr0:@#%%%%%%%%%:yt3r4ra>@%%%%jxg%%%%%%%",
"6%6%%%%%,9rr449;%%%%%%#%%@7yyr4r2a>@$@%%%gg%%%%%%%",
"%%%%%#@8rrr444y9@%%%%%%%%@704r4r22:%6.%%%6%%%%%%%%",
"%%%%#@,rr44443eq@%%%%%%%%;--0r242-@%6%%@%6%%%%%%%%",
"%%%%%@0rrr4442rq.%%%%%%%%;@@,<:<:@@66%%%%6%6%%%%%%",
"@%6%%@02rrr44209;%%%%%%%%%%%%%%%@.6%%%%66%6%%%%%%@",
"@%%6%%00rrr442:;;%%%%%%%%%%%%%%%.jjj6%%%%%&@&@%%%%",
"&%%%%&,9rrr42<%@%%%%%%ggjjjjg%%%jlllk%%%%%<-9@@%%%",
"#%%%+%%-rrrr::%%7%gggjjlllllljjjzzzlj%%#%%rrs-#%%%",
"%%%%%%%%=----;%ggjlllxxxxxxxxxxxxzzlj@%%:wa2s@%%%%",
"%%%%%%%%%@@;%gjxxcxxxxxlllllxxxxxxxzg%%@:y00r:@%%6",
"%%%%%%%%%%%gjjcccxllllllllllllllxcxxjj@#,yy0@#%%%%",
"%%%%%%%%;%gjccxxlllllkkkkkkkkkllllxxccj@@:-:X;:%%6",
"%%%%%%%%%gjcccxxlllkkkkkkkkkkkkkklllxxcg%%%%%%%%%%",
"%%%%%%%%gjcxxllllkkkkkkkkkkkkkkkkkkllxxjg%%%%%%%%&",
"%%%%%%%gjcxlllkkkkkkkkkkkkkkkkkkkkkkllxcjh%%%%%%%%",
"%@%%%%%jxxllkkkkkkkkkkkkkkkkkkkkkkkkklllch%%@%%%%%",
"%%%%@%glxllkkkkkkkkkkkkkkkkkkkkkkkkkkkllxjg%%%%%%%",
"%%%%%%jllkkkkkkkkhhhhhhhhhhhhkkkkkkkkklllcj%%%%%%%",
"%%%%%gjxkkffjjhhhjjjjjjjjjjjjjjjhhkkkkkllcjg%%%%%%",
"%%%%%glxkgx ijjjjjjjjjjjjjjjjjjjjhhhkkkklxxh%%%%%%",
"*==;%jllju  ijjjjjjjjjjjjjjjjjjjjjhhhhkklxxh%#-@-#",
"4<@;%jlkji  ijjjjjjjjjjjjjjjjjjjjjhhhhhkllxh@%@X<y",
"r<.;%jlckjiijjjjjjjjjjjjfffjjjjjjjjhhghkklxh%%%@90",
"9,@%%jljkjjjjjjjjjjjjjjgx55fjjjjjjjhhghhklxh%%@@89",
"=@%%%jkjjjjjjjjjjjjjjjju5  fjjjjjjjhgghhklxg%%%%#%",
"@%%%%gkkjjjjdjjjjjjjjjjg5  fjjjjjjjhggghkxjg%%%%%%",
"%%%%%gklhjjdjjjjjjjjjjjjiuijjjjjjjjhggghlxj@%%%%%%",
"%%%%&%hlhhjujjujjjjjjdjjjjjjjjjjjjjgggghlcg@;%%%%%",
"6%%%&%gjlhjjuddujjjjddjjkkckjjjjjjjggggkch6@&%%%%%",
"6%%%#%%gjhhjjjjdddduujjjjkkkkjjjjggggglccg:+%%%%@#",
"66%%%%%6gjjljjjjjjjjjjjjjjjjjjjjjgggglccgr:%%%%%%%",
"66%%%%%%%ggjlggjjjjjjjjjjjjjjjjgggglcccg<,#@%%%%%%",
"%%%%%%%%%%gghhjjjjjjjjjjjjggggggxxxcchg0>-O@+%%6%%",
"%%%%%%%%%%%%%gghhhhhjjjjllllxxxxxllhg:;:#@@@%%%@%@",
">#%%%%%%%%%%%%%%gggggggggggjjjggg$@%@@@$@%#%%6%%:8",
"y>@%%66%%%%%%%%%%%6%<aa8&%%66%%6%66$.66666%%6%%@:y",
"209:666%%%%%%%%%%%6@>O-@%%%%%%666%66666.$%6%%6%qrr",
"yy0:=@%%%%%%%%%%%%%%%%%%%%%%%%%%%%.%%%%%%%;%;@-rrr",
"4444>=;@;;;;;;;;;%;;%%;;;;;;;;;;;;%%;;;;;%;;;=:yry",
"t4443o=@%%;%;%%;%;%;%;%;%%%;%;%%%;%%%%%%;%;;;;:yye",
"0yp00X&&&&&&&&&&&&&&&&&&6&&&&&&&&%&6&&&&&&%&&&&wwy"
};
