/* XPM */
static char *_129844aaefa4fb6bc5c8d21762d5c4fbKS2W59iwkt2Z0fS[] = {
/* columns rows colors chars-per-pixel */
"50 50 80 1 ",
"  c black",
". c #371F37",
"X c #32232E",
"o c #3E232E",
"O c #3C2829",
"+ c #362637",
"@ c #3B2435",
"# c #3F2835",
"$ c #372639",
"% c #3D253B",
"& c #39283C",
"* c #412A2D",
"= c #412535",
"- c #422A36",
"; c #40243B",
": c #432C3B",
"> c #453037",
", c #47313D",
"< c #4A333D",
"1 c #4F393D",
"2 c #51373D",
"3 c #533C3E",
"4 c #563D3E",
"5 c #612838",
"6 c #3D2440",
"7 c #3D2540",
"8 c #3D2441",
"9 c #3E2441",
"0 c #3E2640",
"q c #3D2443",
"w c #3E2442",
"e c #422841",
"r c #452D43",
"t c #473045",
"y c #4A3240",
"u c #4B3343",
"i c #4C3441",
"p c #493046",
"a c #4D3344",
"s c #4E3646",
"d c #483A41",
"f c #4F3840",
"g c #4B3D40",
"h c #4D3A44",
"j c #4C3E44",
"k c #4E3F47",
"l c #493148",
"z c #4C3549",
"x c #4D3B4A",
"c c #4E3F48",
"v c #513543",
"b c #523B40",
"n c #543940",
"m c #563C40",
"M c #523944",
"N c #523B46",
"B c #553A44",
"V c #533D44",
"C c #533C46",
"Z c #533B49",
"A c #533C48",
"S c #553D4B",
"D c #50384C",
"F c #563E4C",
"G c #733543",
"H c #7D3942",
"J c #4F4048",
"K c #554141",
"L c #554144",
"P c #56414A",
"I c #944851",
"U c #A25050",
"Y c #B55758",
"T c #D16D6D",
"R c #E87D7D",
"E c #FA978E",
"W c #FCB0A9",
"Q c #FFD1CC",
"! c #FFF5CF",
"~ c white",
/* pixels */
"ckkk<X&&&&&&&&&&&&&8&&&&&&.8&%$$$&&&&&&&&&&&%$%c<j",
"3mm31o==%%%;;%;%%;%%;%#%;%;;%.=;=%;%%;%;%;==;;:n33",
"nnn2<==@;;%%;;;;;;%%;;;;%8;;:;@==%;;;;;;;;==;;:Mm4",
"NCf,=%+%%%%%%%%%%%%%%%%%%%8euDsBy#%%%%%%%%%%88%%<3",
"zzre%%%%%$.88%&%%%%%%%%%%%@ivbb3L,@$8&#@%%%%%%@%rl",
"%%%.%%%%%$8%&%%%$%%%%%%%%;:Abbbbb1#%e%%-%%%%%%%%%%",
"%%8%%%%%%%%%%%%%;%%%%%%;%@rAib3N3C:%8%%%%0%%%%%%%%",
"8%%%88%ER@:::%$%%%%%%%%@%;rAbb33C3-%8%@%88%%%%%%%%",
"8%88%e%Y!RhZNu:@%%%%%%%%%%rFAb3C3K-@&$%%80%%%%%%%%",
"888%$%%YYy3C33y:@%%%%%%%%@:Anm33Cb>@%%-%0%%%%%%%%%",
"8%%%%#@:fC3333Au%%:%%%%%%@rsf31b11:%%.%%%8%%%%%%%%",
"%%%$#@<Cbm4342Na+%@%%%%%%;--fC3K3-@%8%%@%%%%%%%%%%",
"%%&%%@hJCb3331Nu@%%%%%%%%#%@,<:<:@%%e%%%0%%08%%%%%",
"@@;8%@11NCC3311<=%%%%%%%%%%%%%%%%&%%%8%%088%%%%%#@",
"%%%%%%sCNNb331RRR%%%%%%%%%%%%%%%%80%0%%%%%%$#$%%%%",
"#%%8%&,ybbb31RWWWR%%%YRRRRYY%%%%%%%%0%%%%%::y@%%%8",
"%%%%+%%-bNbN:RWQQQRRRWWWWWWRRYYY%%%8%%%#%%C3P:@%%%",
"%%%%%%#%=--=-RWQQ!!!!!!!!!!!!WWWRYY%%$%#rcC1C##%e$",
"%%%%%%%%%@=@%YQ!!!!!!!WWWWW!!!!!~!!RY;%@:xbbC:@%%%",
"%%%%%%%%%%%%RR!!~!WWWWWWWWWWWWWW!~~~RRY@:FAh#@%%%8",
"%%%%%%%%;8%R~~!!WWWWEEEEEEEEEWWWWW!!~~RY@::#@#%%%%",
"%%%%%%%%@%Y~!!WWWEEEEEEEEEEEEEEWWW!!~~~RY%%%%&%%%%",
"%%%%%%%%%YR!!WWEEEEEEEEEEEEEEEEEEWWWW!!~RY%%%%%%%%",
"#%%%%%%%TR~!WWEEEEEEEEEEEEEEEEEEEEEEWWW!~RY%%%%%%%",
"%%%%%%%%T~WWWEEEEEEEEEEEEEEEEEEEEEEEEEWW!!R%%%%%%%",
"%%%%@%%YR!WWEEEEEEEEEEEEEEEEEEEEEEEEEEEWW!WY%%%%%%",
"%%%%%%@R~WWWEEEEEEEEETTTTTTTTTTTTEEEEEEEEWWR%%%%%%",
"%%%%%%YR~WWEEEEETTRRRRRRRRRRRRRRRTTTRRUUEE!RY%%%%%",
"%;%;%%T!!WEEEETTTRRRRRRRRRRRRRRRRRRRRH !YE!WY%%#%%",
"*=@;%.T!!WEETTTTRRRRRRRRRRRRRRRRRRRRRH  GRWWR%#@-#",
"m<@;e.T!WWETTTTTRRRRRRRRRRRRRRRRRRRRRH  HREWR@@@yA",
"n<.;8.T!WEETYTTRRRRRRRRUUURRRRRRRRRRRRHHRE~WR%@@,c",
"i<%%+.T!WETTYTTRRRRRRRU55!YRRRRRRRRRRRRRRERWR%@@<i",
"@@%%%%Y!WETTYYTRRRRRRRU  5GRRRRRRRRRRRRRRRRER%%%%&",
"%@%%%%YR!ETYYYTRRRRRRRU  5YRRRRRRRRRRIRRRREEY%%%%#",
"%%%%%%%R!WTYYYTRRRRRRRRHGHRRRRRRRRRRRRIRRTWEY$%%%%",
"%%%&&%&Y~WTYYYYRRRRRRRRRRRRRIRRRRRRGRRGRTTWT:%%%%%",
"8%%%%%%0T~EYYYYRRRRRRRE~EERRIIRRRRGIIGRRTWRY;$%%%%",
"8%%%%%%8Y~~WYYYYYRRRREEEERRRRGGIIIIRRRRTTRY#8%%%%#",
"8;%%%%%0%Y~~WYYYYRRRRRRRRRRRRRRRRRRRRRWRRY;@%%%%%%",
"88%%%-%%%%Y~~~WYYYYRRRRRRRRRRRRRRRRYYWRYY:##@%%%%%",
"0%%%%%%%%%%YT~~!!!YYYYYYRRRRRRRRRRRRTTYY,-@@+%0%%%",
"%%%%%%%%%%%%%YTWW!!!!!WWWWRRRRTTTTTYY:::#@#@%%%%%@",
":@%%%%%%%%%%%%%%%YYYRRRYYYYYYYYYYY@%%@.$@@@%%%%%::",
"L>#%%8%%%%%%%%%%%%8%iLP:%%%%%%88%8%8%%88%8%%%&%@;F",
"1A<%8888%%%%%%%%%$e+:O*@%&%88%8%8$8.888.8%8%08$sNN",
"AAj:=@%%%%%%%%%@%%%%%%%%%%%%%%%%%%%%%%%%%%;%%=:NMZ",
"413m-=;@;;;;;;;;;;;;;;;;%;;;;;;%%%%%;;;%%%;=;;=ZZB",
"nm331o=@%%%%%;%%%:%%%;%;%%%;%;%:;%%%%%%;%%%;;=:BBZ",
"kPLjdX$%&%&&&&8&&&&&&&&&&8&&&&&&8%&&&&&%8&&&&&&cxc"
};
