/* XPM */
static char *_3bcda8006554dc0cae0c793ddf8ee0ehQPW5OI7n7afXu4K[] = {
/* columns rows colors chars-per-pixel */
"50 50 239 2 ",
"   c #201F1C",
".  c #1B3217",
"X  c #282618",
"o  c #253C1A",
"O  c #363018",
"+  c #2E192A",
"@  c #371D2A",
"#  c #2B1E35",
"$  c #331C33",
"%  c #3B1E36",
"&  c #351B39",
"*  c #3E1D3D",
"=  c #1F272A",
"-  c #2B2325",
";  c #262D24",
":  c #292D23",
">  c #2D262B",
",  c #272E29",
"<  c #2C2A2B",
"1  c #372727",
"2  c #32252D",
"3  c #332C2D",
"4  c #283425",
"5  c #2B3C26",
"6  c #26312A",
"7  c #2D332D",
"8  c #2C3B2C",
"9  c #32322A",
"0  c #363628",
"q  c #343A2B",
"w  c #2E2331",
"e  c #2C2C33",
"r  c #2C273B",
"t  c #2B2E3A",
"y  c #342533",
"u  c #3C2534",
"i  c #342B33",
"p  c #3A2A34",
"a  c #36243B",
"s  c #3C253B",
"d  c #35293A",
"f  c #3B293C",
"g  c #2E3832",
"h  c #343131",
"j  c #3B3234",
"k  c #333C33",
"l  c #3A3D31",
"z  c #36363A",
"x  c #3C333A",
"c  c #4B1733",
"v  c #441E34",
"b  c #431D3B",
"n  c #491C3A",
"m  c #46282D",
"M  c #412435",
"N  c #42233C",
"B  c #42293C",
"V  c #492838",
"C  c #43383A",
"Z  c #523E3F",
"A  c #1C4618",
"S  c #335801",
"D  c #28451D",
"F  c #2F680C",
"G  c #356719",
"H  c #1C4526",
"J  c #2C462A",
"K  c #354629",
"L  c #3B5D28",
"P  c #294033",
"I  c #3D4439",
"U  c #384838",
"Y  c #3A5336",
"T  c #375538",
"R  c #2B6C24",
"E  c #346A29",
"W  c #267021",
"Q  c #2D7E2C",
"!  c #347C2A",
"~  c #3D6634",
"^  c #3D7537",
"/  c #3E7B35",
"(  c #3D7C3C",
")  c #51621B",
"_  c #474626",
"`  c #4E562A",
"'  c #4A592A",
"]  c #57562E",
"[  c #46483C",
"{  c #5C4A37",
"}  c #4B5637",
"|  c #4D523C",
" . c #545439",
".. c #477E2A",
"X. c #45663C",
"o. c #536D38",
"O. c #497737",
"+. c #447D35",
"@. c #4A7E33",
"#. c #43763D",
"$. c #4D733D",
"%. c #437E3C",
"&. c #4A7C3D",
"*. c #52783D",
"=. c #64693E",
"-. c #3B1B43",
";. c #3D1D42",
":. c #3D2442",
">. c #3C2A41",
",. c #3D224B",
"<. c #382948",
"1. c #441E43",
"2. c #4A1D43",
"3. c #47174B",
"4. c #431D4A",
"5. c #4B1B4B",
"6. c #4A1853",
"7. c #432242",
"8. c #492445",
"9. c #432A43",
"0. c #442349",
"q. c #48244B",
"w. c #473745",
"e. c #523841",
"r. c #492352",
"t. c #523852",
"y. c #3D4C41",
"u. c #3E7E42",
"i. c #3E7D49",
"p. c #3D6354",
"a. c #484945",
"s. c #56494A",
"d. c #495947",
"f. c #555949",
"g. c #554A55",
"h. c #495C53",
"j. c #436243",
"k. c #4B6245",
"l. c #456F43",
"z. c #4C6B44",
"x. c #42614C",
"c. c #4E634A",
"v. c #4C6B49",
"b. c #576A45",
"n. c #52654B",
"m. c #546E4C",
"M. c #457543",
"N. c #4C7344",
"B. c #447C42",
"V. c #4A7A44",
"C. c #467049",
"Z. c #4C754A",
"A. c #437C4B",
"S. c #4A7B4B",
"D. c #527B44",
"F. c #56734A",
"G. c #53744B",
"H. c #557C4D",
"J. c #4B6D54",
"K. c #566756",
"L. c #5D6556",
"P. c #546B54",
"I. c #5B6B54",
"U. c #4C7555",
"Y. c #467852",
"T. c #447959",
"R. c #537453",
"E. c #5A7455",
"W. c #537A55",
"Q. c #5B7A57",
"!. c #64675A",
"~. c #556A65",
"^. c #6F716E",
"/. c #2F8226",
"(. c #3C852D",
"). c #338829",
"_. c #30912F",
"`. c #3C8334",
"'. c #388737",
"]. c #3D823B",
"[. c #7BA61F",
"{. c #42842C",
"}. c #498328",
"|. c #428134",
" X c #4B8337",
".X c #43823B",
"XX c #44893C",
"oX c #52823A",
"OX c #6F992E",
"+X c #6E9B3C",
"@X c #769A3C",
"#X c #71A733",
"$X c #7CA637",
"%X c #7BAC36",
"&X c #7CA63B",
"*X c #7AA83B",
"=X c #3C8342",
"-X c #3D8249",
";X c #4A8242",
":X c #468548",
">X c #52834A",
",X c #57894A",
"<X c #488552",
"1X c #558552",
"2X c #648E48",
"3X c #769648",
"4X c #6E8B51",
"5X c #799857",
"6X c #7D9D5B",
"7X c #6DAD4F",
"8X c #7DA545",
"9X c #79A846",
"0X c #7FA44A",
"qX c #7DA552",
"wX c #7EAA52",
"eX c #72B659",
"rX c #799165",
"tX c #86843B",
"yX c #87993D",
"uX c #83A926",
"iX c #86A435",
"pX c #83A43C",
"aX c #82AA3C",
"sX c #8A9E47",
"dX c #859C4D",
"fX c #889D56",
"gX c #839E5C",
"hX c #83A342",
"jX c #89A442",
"kX c #83AA43",
"lX c #81A44B",
"zX c #89A948",
"xX c #87B249",
"cX c #81A153",
"vX c #8FAF56",
"bX c #88A758",
"nX c #829C66",
"mX c #878770",
"MX c #99AB6A",
/* pixels */
"cXcXcXcXcXcXcXcXrX| > E.].B.U.R.S.u.S.W.k d f f a d s :.d P W.A.M.Z.U.U.u.].E.- d.nXgXgXcX6X5XrXW.T ",
"&X&X&X$X$X&X$X$X9X' - F.(.'.A.B./ Q ].1X5 p :.7.s u s 7.d 5 1X].! {.B.A.'.(.m.- ` kXaX@X8X8X9X2X,XD.",
"0XlX0X8XlXlXkX8X*X' u L.%.`.A.].(./ ;XZ.l u 0.7.s N N 7.f k G.;X/ {.B.A.`. XL.u ` $XaXaX*XwX3XS 3XqX",
"hXhXhXhXpXpXpXpX&X` * w.~ A.T.B.(.Z.z.q 3 N 1.7.s p N 0.:.i J z.N.{.A.T.=XE C * ` @X@X@XS 3XcXlXbX+X",
"9XiXuXuX#XeX7X9XuX) 9.1.{ b.P.~.K.^.T A J w.-.:.7 b 7.,.<.<.t d.b.P.m.N.n.s.u v s.mXeX XG @XyXsXfXcX",
"nXzXyXyXkX+XkXsXzX` :.4.M : < < 3 3 o ,XS.K.+ f p B u 2 @ 2 $ i - > > : , y % N u X U ' vX&XhXsXlX*X",
"gXcXlXpXpXaXyXtX_ 9 ;.0.V N :.N v N I V.`.XXZ.a.1.& I *.o.f.v 2.1.1.7.u p :.9.N u p 0.K 0XxXlX0X$X[.",
"$XpX8X%XaXaX3XmXa s s y u :.7.N V % w.I.;X/..XY 4.a T (.! C.# 4.q.q.q.7.7.a * N M V u O vX$X8X0X0XkX",
"iXjXdXcX@XbXD = r.f 1 : h t d 3 1 3 :.+ n.V.>Xy.:.-.y.<X-Xx.<.<.3 3 e < 3 e 3 B b V O C MX3XaXaXbXfX",
"] ] | | }  .1 d f s.b.X.j.j.j.p.j.J a 5.t.U T 8 r d x a.y.t.a d.l.~ X.X.j.k.d.i 9.8.j x  .3XiX%XpXfX",
"$ w i y V v @ 2 ; } *.&.S.V.&.V.i.J i * 1.s i i f z a n c v X X.( |.|.%.V.V.#.. C % >.:.$ rXcXxXkXbX",
"U.Z.G.l u b M l m.&.|.u.V.@.}.|.<XZ.n.> y f a f :.< s 1.B K &.:XZ..X.X&..XXXXXN.f.y s v v 1 o ^ / %.",
"u.`.{.E d.u u 5 V.%.`.'.=X..}.%.u.#.M.~ 0 u a :.* 3 s f } R '.:X#..X.X%.&..X/.+.x.>.7.1 m h.d.S.=X].",
"U.&.{.].J.N M 4 N.&.].'.`.].%.%.( |..XS.0 u f f N i 7.f W.`.].;X].B.].`.V.&.(.).c.;.-.1 i ~.Y.+.|.u.",
"Y.&.+.( P.7.N 6 V.&.%.]..X%.V.%.%.XX'.S.0 u >.a N 3 s f F.`..XB.].M.].|.&.&.(.(.k.a y v p U.=X+.&.S.",
"A.%.{.%.P.u N , V.%.%.A.B.Z.V.%..X].'.S.q y >.f N i 7.f R.`..XV..X%.%.%.%..X`.|.k.< < 3.:.Z.).`.Z.Z.",
"=X|./ :XJ.p u , %.+.].].B.&.%.|.'.].=X:X0 u >.d N i 7.s R.`.%.V.( .X%.%.%.|.+.%.c.4 y 6.q.M.).`.V.B.",
"'./ +.V.J.h 1 6 %./ =X:X( %..X`.`.].=XS.l p d :.N w 7.s Q.+..XS..X%.B.V..X`.^ I.f.7 u 3.9.G.(.'.u.u.",
"=XV.H.Z.d.h 2 7 v.V.B.].].`.|.`.]..X=XM.0 u >.a N i 7.a E.%.%.Z.%.`.V.V.`.`.G.K.a.4 x z k d.z.S.u.%.",
"U.E.!.6 7 M M w   d.1Xu.`.|.%.B.V.%.1XW.C u <.>.u p ;.9.Q.|.%.M..X`.&.N.].XXQ.d i : I.-X>Xl h J.Y.H.",
"H q l i d 9.b 7.y < J ( XX.XV.Z.S.*.#.o X M d d u p 0.s Y R %.S.%.`.M.Z.`.W U & g.!.4X_.Q 9 1.y.H J ",
":.7.7.N N N u s :.d g v.v.v.N.O.%.;XX.3 N :.:.u N i N 0.f I >XM.V.$.@.+.$.a.B f K F.|.D.R.I i p f d ",
"p a p s s f f u f u 2 j 2 u % v % # 1.3.r.,.f a p p N 1.1.$ y $ b * y < < a 1.f U H.W.c.: p u s f f ",
"i d p p u N p a u a B N b 8.5.5.5.4.3.3.-.:.>.d p M N 7.2.N b 8.6.3.0.:.f 1.0.:.q Y [ a.y % 7.:.:.s ",
"i p u s N s s s a s 7.% N p 3 3 i i i i i i a N 7.1.7.s u j 9 h p i h 7 7 a :.9.y > y 9.s 7.7.:.:.f ",
"d :.:.7.8.s f y > w 9.:.a 9 7 i i p i < x p u 7.1.;.u p i i h i i i i i i p % N u u a s N N s f a i ",
":.:.:.7.% y a.[ T g >.4.:.:.f 0.5.5.5.7.N N V b N f x x f -.3.4.4.5.5.5.1.b N N N u f u u s u p i i ",
":.f s s p : k.Q.H.U f :.* < > y 1.N $ f % N N N y s.Z w.7.5.6.1.$ y % % u y p 3 a B p s B u f p a p ",
"d u p i [ G.V.XXG.K p f a.$.+.$.$.+.#.W.k u M u a e.Z Z p s p d.;X+.O.N.Z.v.c.h p 0.s u u N N 7.:.:.",
"A J C <.8 ! }.H.!.g.# U G +.A.=X+.( V.%.W T $ 0.p w.e.V B ; A +.A.Z.Z.B.%.XX( J < a 7.a N N p k P 5 ",
"<XG.I.t g >XoXE.: e t Q.oX|.u.B.|.B.M..X.XQ.a -.B s M M & y.H.,Xu.%.%.B.( ].].1Xh.  y i p i 9 P.R.Q.",
"A.|.;XZ.x.l l p 9 d.h.G.@..Xu.B.|.%.B.( .Xm.$ 1.p :.M N s h $. X:X`.|..X].`.`.%.V.z.h < h d.m.>XB.B.",
"V.(./..XE.f % 9.9 n.G.%.|.%.B..X%.%.V..X`.R.y 1.u :.a u a z D.{..X(.`.].%.:X].`.^ #.6 3 3 P.;X/ / '.",
"R.].).(.m.:.;.a 6 v.V./ .X%.%.%.].%.M..X`.N.y ;.p ,.N M f k D. X.X`.|.M.S.B.].`..XM., u p J.B.|..X=X",
"R.B._.(.G.f ;.3 e v.+.`..XB.%.%.].u.B..X`.v.u 7.i ,.s M >.g D.{.]..X%.V.S.V.%..X%.V., V s J.].@.%.i.",
"V.A.( |.b.d :.y e b.|.(.=XB.+.|.].].B..X(.N.y N p :.u M p k D.{.].%.%.V.B.( ]..XV.V.6 n 7.J.].@.$.Y.",
"{.A.B.$.b.d -.a d n.{.(.-XB.@.+.].].B.|.(.N.y 7.a :.p M p k D. X.X%.%.%.].`.'.`.M.Z.o n V Y.'...*.i.",
"=X=XV.X.| B & u d n.%.! =XV.%.%.( u.=X'.R Y a s i :.N u y g Y S.^ i.%...%.-X=X`..XZ.o V N y.E @.&.u.",
"( +.^ o : n V 9.i h.V.XXXXV.V..X.XV.;X+.K B 1.N 3 s s a f y < n.Z.A.|.}.@.B.].{. X$.0 p b @ q G.Z.U.",
"lX9XxXcXmX  7.<.a z . N.V.V.V.|..X$.X.0 @ N 2.N V d < i p ;.-.h J u..X}.&.V.%.@.' X 2 % v N y d > $ ",
"zXjXaXkXdX` h i q.9.i d.k.j.X.X.^ X.a.y t.C a.i a d g T k t.5.f 5 x.x.x.h.x.k.n.s.:.d 3  .] | |  .] ",
"fXzXhXkX@XMX_ m q.s a y i i e i e 6 <.r h.<X<XT r ;.Y ,X:Xf.$ B 3 3 i r t 7 3 > >.r.> o MX9XwX0XkXiX",
"dX0X&X*X@XMXO u B p 7.s s 7.7.0.4.q.4.# C.Q XXY a 4.[ .X/.;XI.w.s m V N p 1 1 u p m mXdXaX%X*X9X8X$X",
"%X$XiXpXzX5XK <.9 u N q.7.s s 7.1.2.2.% d.O.$.[ b -.a.N.XX|.N.U s n 1.7.s B 0.-.i K tXyXkXpXpXdXcXgX",
"&XhXsXpX&XqXL U   2 b * u : ; > < - i 2 i - < u 7.p y 2 I.H.1XJ y r r w > % 4.r.| vXsXkX+XkXpXpXdXcX",
"qXfXfXsXOXF ..6XmXs.% s s.P.m.m.n.M.d.t ,.,.,.0.a : u 4.w.5 A T ^.K.I.m.=.{ b 9.) [.9X7XeX#XuXuXiX9X",
"*XvXdXbX3XS @XhX*X` 1.w.~ A.T.B.{.N.z.J 3 N 7.N f u 7.7.N 3 J z.N.{.B.T.:X~ >.1.` $XpXpXpXpXsXpXhXhX",
"wX2XS 3X8X8X&X$X$X' u L.@.].A.%.(./ V.G.l u 7.7.N s 7.7.a q G.;X/ (.B.A.].|.I.u ` *X8XlX8XhXlXlXlXlX",
"V.,X,XwX9X*X&XpXhX` > I.{.`.A.V.{.Q ].1X5 p 7.:.s N 7.:.i 8 1X].! +.M.A.'.`.G.- ` 0X$X$X$X&X&X&X%X&X",
"T E.rX6X6XcXgXgXnXd.- E.`.B.U.U.Z.A.S.W.P d :.f i d >.f t g W.S.A.V.R.U.].].E.- | nXcXcXcXcXcXcXcXcX"
};
